<svg xmlns="http://www.w3.org/2000/svg" xmlns:xlink="http://www.w3.org/1999/xlink" width="544" zoomAndPan="magnify" viewBox="0 0 408 359.999987" height="480" preserveAspectRatio="xMidYMid meet" version="1.0"><path fill="#eec370" d="M 165.804688 162.390625 C 139.550781 162.390625 117.023438 146.753906 95.15625 131.589844 C 67.082031 112.113281 38.050781 91.96875 0.230469 102.9375 L 0.015625 102.199219 C 38.179688 91.132812 67.367188 111.375 95.585938 130.960938 C 121.070312 148.644531 145.144531 165.347656 175.296875 160.929688 C 209.152344 155.972656 222.578125 133.28125 238.117188 107.019531 C 252.171875 83.269531 268.101562 56.34375 302.511719 36.875 C 318.8125 27.652344 334.425781 26.085938 348.925781 32.21875 C 360.472656 37.101562 377.605469 49.820312 393.667969 82.722656 C 403.261719 102.367188 407.976562 120.167969 408.023438 120.347656 L 407.277344 120.539062 C 407.230469 120.363281 402.523438 102.628906 392.96875 83.046875 C 377.015625 50.367188 360.050781 37.753906 348.628906 32.925781 C 334.347656 26.894531 318.964844 28.445312 302.890625 37.546875 C 268.664062 56.914062 252.789062 83.746094 238.777344 107.410156 C 223.132812 133.851562 209.621094 156.679688 175.40625 161.6875 C 172.15625 162.160156 168.953125 162.390625 165.804688 162.390625 Z M 165.804688 162.390625 " fill-opacity="1" fill-rule="nonzero"/><path fill="#eec370" d="M 167.640625 173.035156 C 141.09375 173.035156 118.867188 155.578125 95.472656 137.203125 C 67.175781 114.980469 37.910156 92 0.238281 102.929688 L 0.0234375 102.191406 C 38.082031 91.15625 67.5 114.257812 95.949219 136.59375 C 121.785156 156.886719 146.195312 176.046875 176.441406 171.613281 C 210.097656 166.683594 222.980469 143.558594 237.886719 116.789062 C 251.511719 92.324219 266.957031 64.601562 301.574219 45 C 318.558594 35.394531 334.832031 33.648438 349.964844 39.820312 C 370.363281 48.144531 385.074219 69.597656 393.8125 86.128906 C 403.277344 104.015625 407.984375 120.148438 408.03125 120.308594 L 407.292969 120.523438 C 407.246094 120.363281 402.554688 104.289062 393.128906 86.472656 C 384.449219 70.066406 369.859375 48.765625 349.671875 40.535156 C 334.78125 34.457031 318.71875 36.183594 301.960938 45.667969 C 267.527344 65.160156 252.136719 92.785156 238.5625 117.15625 C 223.554688 144.105469 210.589844 167.378906 176.558594 172.363281 C 173.523438 172.828125 170.550781 173.035156 167.640625 173.035156 Z M 167.640625 173.035156 " fill-opacity="1" fill-rule="nonzero"/><path fill="#eec370" d="M 169.582031 183.671875 C 142.53125 183.671875 119.789062 163.773438 95.832031 142.8125 C 67.296875 117.847656 37.796875 92.039062 0.238281 102.9375 L 0.0234375 102.199219 C 37.988281 91.1875 67.652344 117.140625 96.339844 142.234375 C 122.515625 165.132812 147.230469 186.761719 177.578125 182.320312 C 211.058594 177.414062 223.402344 153.855469 237.6875 126.570312 C 250.875 101.402344 265.8125 72.871094 300.648438 53.164062 C 318.367188 43.132812 335.355469 41.1875 351.148438 47.375 C 389.097656 62.25 407.855469 119.730469 408.039062 120.308594 L 407.308594 120.539062 C 407.125 119.960938 388.476562 62.824219 350.871094 48.082031 C 335.300781 41.980469 318.535156 43.917969 301.03125 53.824219 C 266.40625 73.421875 251.511719 101.847656 238.378906 126.917969 C 223.992188 154.386719 211.566406 178.105469 177.703125 183.0625 C 174.9375 183.480469 172.238281 183.671875 169.582031 183.671875 Z M 169.582031 183.671875 " fill-opacity="1" fill-rule="nonzero"/><path fill="#eec370" d="M 171.386719 194.316406 C 143.914062 194.316406 120.695312 171.964844 96.230469 148.40625 C 67.453125 120.707031 37.695312 92.0625 0.238281 102.929688 L 0.0234375 102.191406 C 37.910156 91.203125 67.828125 120 96.761719 147.855469 C 123.261719 173.363281 148.292969 197.460938 178.707031 193.007812 C 212.019531 188.128906 223.832031 164.125 237.519531 136.324219 C 250.253906 110.445312 264.691406 81.117188 299.703125 61.304688 C 318.210938 50.828125 335.96875 48.644531 352.476562 54.808594 C 389.289062 68.558594 407.847656 119.777344 408.03125 120.292969 L 407.308594 120.546875 C 407.125 120.03125 388.683594 69.148438 352.207031 55.523438 C 335.925781 49.4375 318.382812 51.609375 300.078125 61.964844 C 265.277344 81.664062 250.890625 110.878906 238.203125 136.65625 C 224.421875 164.648438 212.527344 188.820312 178.816406 193.761719 C 176.304688 194.140625 173.832031 194.316406 171.386719 194.316406 Z M 171.386719 194.316406 " fill-opacity="1" fill-rule="nonzero"/><path fill="#eec370" d="M 173.085938 204.96875 C 145.257812 204.96875 121.59375 180.160156 96.652344 154.003906 C 67.621094 123.566406 37.605469 92.09375 0.230469 102.929688 L 0.015625 102.191406 C 37.84375 91.222656 68.019531 122.867188 97.207031 153.472656 C 124.027344 181.597656 149.375 208.160156 179.828125 203.699219 C 212.980469 198.84375 224.285156 174.386719 237.363281 146.070312 C 249.648438 119.492188 263.5625 89.363281 298.75 69.449219 C 318.113281 58.488281 336.691406 56.03125 353.964844 62.125 C 389.550781 74.683594 407.832031 119.824219 408.007812 120.277344 L 407.292969 120.5625 C 407.117188 120.109375 388.960938 75.285156 353.703125 62.847656 C 336.636719 56.828125 318.28125 59.273438 299.117188 70.117188 C 264.148438 89.910156 250.285156 119.917969 238.054688 146.394531 C 224.875 174.917969 213.5 199.550781 179.9375 204.460938 C 177.632812 204.808594 175.34375 204.96875 173.085938 204.96875 Z M 173.085938 204.96875 " fill-opacity="1" fill-rule="nonzero"/><path fill="#eec370" d="M 174.707031 215.628906 C 146.5625 215.628906 122.492188 188.359375 97.105469 159.597656 C 67.820312 126.417969 37.535156 92.109375 0.230469 102.929688 L 0.015625 102.191406 C 37.789062 91.238281 68.234375 125.734375 97.683594 159.089844 C 124.820312 189.835938 150.449219 218.875 180.964844 214.40625 C 213.96875 209.574219 224.761719 184.664062 237.257812 155.816406 C 249.070312 128.53125 262.464844 97.613281 297.8125 77.605469 C 318.082031 66.128906 337.542969 63.332031 355.648438 69.296875 C 389.917969 80.570312 407.832031 119.878906 408.007812 120.277344 L 407.308594 120.59375 C 407.132812 120.199219 389.359375 81.203125 355.402344 70.027344 C 337.515625 64.140625 318.257812 66.914062 298.1875 78.28125 C 263.066406 98.15625 249.730469 128.953125 237.957031 156.132812 C 225.375 185.183594 214.5 210.28125 181.074219 215.175781 C 178.929688 215.484375 176.808594 215.628906 174.707031 215.628906 Z M 174.707031 215.628906 " fill-opacity="1" fill-rule="nonzero"/><path fill="#eec370" d="M 176.265625 226.296875 C 147.855469 226.296875 123.390625 196.5625 97.574219 165.1875 C 68.027344 129.269531 37.464844 92.132812 0.230469 102.929688 L 0.015625 102.191406 C 37.734375 91.246094 68.457031 128.585938 98.167969 164.703125 C 125.617188 198.066406 151.539062 229.578125 182.09375 225.105469 C 214.960938 220.296875 225.253906 194.921875 237.15625 165.546875 C 248.503906 137.5625 261.367188 105.84375 296.859375 85.75 C 318.105469 73.730469 338.503906 70.535156 357.5 76.265625 C 390.371094 86.191406 407.824219 119.917969 408 120.253906 L 407.316406 120.601562 C 407.148438 120.261719 389.835938 86.820312 357.277344 76.996094 C 338.496094 71.332031 318.296875 74.5 297.242188 86.414062 C 261.980469 106.375 249.171875 137.953125 237.871094 165.824219 C 225.875 195.414062 215.503906 220.980469 182.203125 225.851562 C 180.210938 226.160156 178.222656 226.296875 176.265625 226.296875 Z M 176.265625 226.296875 " fill-opacity="1" fill-rule="nonzero"/><path fill="#eec370" d="M 177.769531 236.964844 C 149.121094 236.964844 124.28125 204.753906 98.066406 170.773438 C 68.25 132.121094 37.414062 92.140625 0.238281 102.929688 L 0.0234375 102.191406 C 37.710938 91.261719 68.703125 131.445312 98.675781 170.304688 C 126.433594 206.292969 152.648438 240.277344 183.230469 235.796875 C 215.972656 231 225.757812 205.175781 237.097656 175.261719 C 247.964844 146.578125 260.292969 114.066406 295.929688 93.890625 C 333.472656 72.640625 361.945312 80.941406 379.226562 91.640625 C 397.9375 103.222656 407.898438 120.054688 407.992188 120.222656 L 407.332031 120.609375 C 407.230469 120.4375 397.355469 103.753906 378.796875 92.269531 C 367.914062 85.535156 356.222656 81.886719 344.042969 81.417969 C 328.8125 80.824219 312.742188 85.253906 296.308594 94.550781 C 260.914062 114.582031 248.640625 146.964844 237.816406 175.523438 C 226.398438 205.660156 216.535156 231.6875 183.347656 236.542969 C 181.472656 236.835938 179.605469 236.964844 177.769531 236.964844 Z M 177.769531 236.964844 " fill-opacity="1" fill-rule="nonzero"/><path fill="#eec370" d="M 179.230469 247.640625 C 150.375 247.648438 125.164062 212.960938 98.566406 176.363281 C 68.480469 134.964844 37.367188 92.160156 0.238281 102.929688 L 0.0234375 102.191406 C 37.675781 91.269531 68.941406 134.296875 99.1875 175.910156 C 127.246094 214.515625 153.761719 250.96875 184.367188 246.496094 C 216.988281 241.714844 226.289062 215.429688 237.050781 184.976562 C 247.441406 155.59375 259.214844 122.292969 294.984375 102.046875 C 315.699219 90.324219 347.039062 79.710938 378.730469 95.707031 C 397.675781 105.265625 407.886719 120.0625 407.984375 120.214844 L 407.347656 120.644531 C 407.246094 120.5 397.132812 105.851562 378.351562 96.375 C 346.976562 80.546875 315.90625 91.085938 295.371094 102.714844 C 259.847656 122.820312 248.125 155.980469 237.78125 185.238281 C 226.933594 215.921875 217.5625 242.414062 184.484375 247.257812 C 182.714844 247.519531 180.957031 247.640625 179.230469 247.640625 Z M 179.230469 247.640625 " fill-opacity="1" fill-rule="nonzero"/><path fill="#eec370" d="M 180.652344 258.316406 C 151.601562 258.316406 126.046875 221.164062 99.074219 181.949219 C 68.710938 137.816406 37.3125 92.175781 0.238281 102.9375 L 0.0234375 102.199219 C 37.644531 91.292969 69.195312 137.15625 99.710938 181.511719 C 128.070312 222.738281 154.859375 261.683594 185.503906 257.195312 C 218.007812 252.4375 226.820312 225.675781 237.027344 194.691406 C 246.933594 164.609375 258.15625 130.515625 294.054688 110.199219 C 314.757812 98.480469 346.171875 87.160156 378.238281 99.769531 C 397.421875 107.3125 407.871094 120.070312 407.976562 120.191406 L 407.378906 120.675781 C 407.277344 120.554688 396.933594 107.933594 377.921875 100.46875 C 360.386719 93.582031 331.667969 89.800781 294.441406 110.871094 C 258.800781 131.039062 247.625 164.988281 237.765625 194.9375 C 227.480469 226.167969 218.601562 253.136719 185.628906 257.964844 C 183.945312 258.195312 182.292969 258.316406 180.652344 258.316406 Z M 180.652344 258.316406 " fill-opacity="1" fill-rule="nonzero"/><path fill="#eec370" d="M 182.039062 268.992188 C 152.824219 268.992188 126.925781 229.363281 99.589844 187.53125 C 68.957031 140.652344 37.273438 92.183594 0.230469 102.9375 L 0.015625 102.199219 C 37.621094 91.292969 69.441406 140.007812 100.226562 187.113281 C 128.882812 230.972656 155.964844 272.398438 186.625 267.894531 C 219.023438 263.152344 227.355469 235.921875 236.996094 204.394531 C 246.414062 173.609375 257.082031 138.722656 293.097656 118.339844 C 313.789062 106.628906 345.273438 94.597656 377.707031 103.820312 C 397.125 109.339844 407.824219 120.046875 407.921875 120.15625 L 407.378906 120.691406 C 407.269531 120.585938 396.695312 110.007812 377.453125 104.542969 C 345.285156 95.414062 314.027344 107.363281 293.472656 119 C 257.726562 139.230469 247.105469 173.964844 237.726562 204.609375 C 228.003906 236.382812 219.605469 263.828125 186.726562 268.648438 C 185.167969 268.878906 183.601562 268.992188 182.039062 268.992188 Z M 182.039062 268.992188 " fill-opacity="1" fill-rule="nonzero"/><path fill="#eec370" d="M 183.40625 279.675781 C 154.042969 279.675781 127.808594 237.574219 100.109375 193.109375 C 69.203125 143.496094 37.234375 92.191406 0.230469 102.9375 L 0.015625 102.199219 C 37.589844 91.300781 69.703125 142.851562 100.761719 192.710938 C 129.71875 239.1875 157.054688 283.082031 187.761719 278.59375 C 220.058594 273.867188 227.910156 246.164062 237.003906 214.09375 C 245.929688 182.617188 256.035156 146.941406 292.160156 126.496094 C 312.84375 114.789062 344.386719 102.054688 377.207031 107.894531 C 396.863281 111.390625 407.792969 120.046875 407.898438 120.132812 L 407.417969 120.730469 C 407.308594 120.644531 396.496094 112.097656 377.023438 108.640625 C 344.449219 102.859375 313.097656 115.519531 292.535156 127.15625 C 256.691406 147.445312 246.621094 182.957031 237.742188 214.292969 C 228.578125 246.621094 220.660156 274.542969 187.871094 279.347656 C 186.378906 279.570312 184.890625 279.667969 183.40625 279.675781 Z M 183.40625 279.675781 " fill-opacity="1" fill-rule="nonzero"/><path fill="#eec370" d="M 184.753906 290.351562 C 155.25 290.351562 128.691406 245.765625 100.648438 198.691406 C 69.464844 146.339844 37.199219 92.207031 0.238281 102.929688 L 0.0234375 102.191406 C 37.574219 91.300781 69.972656 145.695312 101.308594 198.289062 C 130.558594 247.394531 158.199219 293.773438 188.898438 289.277344 C 221.105469 284.558594 228.476562 256.386719 237.027344 223.769531 C 245.453125 191.59375 255 155.132812 291.230469 134.628906 C 328.6875 113.421875 358.390625 110.59375 376.707031 111.953125 C 396.585938 113.429688 407.761719 120.023438 407.871094 120.09375 L 407.46875 120.753906 C 407.363281 120.683594 396.308594 114.167969 376.59375 112.714844 C 358.390625 111.371094 328.875 114.207031 291.605469 135.296875 C 255.660156 155.640625 246.152344 191.933594 237.773438 223.960938 C 229.160156 256.847656 221.71875 285.25 189.015625 290.039062 C 187.578125 290.253906 186.164062 290.351562 184.753906 290.351562 Z M 184.753906 290.351562 " fill-opacity="1" fill-rule="nonzero"/><path fill="#eec370" d="M 186.074219 301.035156 C 156.441406 301.035156 129.566406 253.976562 101.179688 204.269531 C 69.71875 149.183594 37.175781 92.214844 0.230469 102.9375 L 0.015625 102.199219 C 37.550781 91.316406 70.234375 148.546875 101.847656 203.894531 C 116.070312 228.796875 130.78125 254.550781 145.386719 272.796875 C 161.65625 293.113281 176.257812 302.003906 190.027344 299.992188 C 222.140625 295.285156 229.046875 266.640625 237.042969 233.46875 C 244.96875 200.601562 253.949219 163.347656 290.277344 142.789062 C 327.722656 121.597656 357.667969 116.542969 376.1875 116.035156 C 396.285156 115.472656 407.691406 120.03125 407.808594 120.078125 L 407.515625 120.792969 C 407.402344 120.746094 396.117188 116.25 376.15625 116.8125 C 357.730469 117.324219 327.9375 122.359375 290.652344 143.457031 C 254.625 163.847656 245.683594 200.925781 237.796875 233.636719 C 229.730469 267.078125 222.765625 295.964844 190.144531 300.738281 C 188.777344 300.9375 187.425781 301.035156 186.074219 301.035156 Z M 186.074219 301.035156 " fill-opacity="1" fill-rule="nonzero"/><path fill="#eec370" d="M 187.386719 311.71875 C 157.640625 311.71875 130.449219 262.175781 101.722656 209.851562 C 69.980469 152.019531 37.152344 92.222656 0.238281 102.9375 L 0.0234375 102.199219 C 37.542969 91.316406 70.507812 151.390625 102.398438 209.480469 C 116.761719 235.652344 131.617188 262.714844 146.339844 281.914062 C 162.730469 303.289062 177.386719 312.695312 191.164062 310.683594 C 223.195312 305.992188 229.628906 276.871094 237.089844 243.144531 C 244.507812 209.589844 252.917969 171.550781 289.339844 150.9375 C 326.777344 129.753906 356.953125 122.484375 375.6875 120.117188 C 396.011719 117.546875 407.640625 120.03125 407.753906 120.0625 L 407.59375 120.816406 C 407.140625 120.714844 361.101562 111.214844 289.730469 151.613281 C 253.609375 172.058594 245.238281 209.917969 237.847656 243.320312 C 230.328125 277.324219 223.839844 306.683594 191.289062 311.449219 C 189.976562 311.628906 188.675781 311.71875 187.386719 311.71875 Z M 187.386719 311.71875 " fill-opacity="1" fill-rule="nonzero"/><path fill="#eec370" d="M 188.675781 322.402344 C 158.828125 322.402344 131.324219 270.375 102.261719 215.421875 C 70.238281 154.855469 37.113281 92.222656 0.230469 102.929688 L 0.015625 102.191406 C 37.519531 91.316406 70.777344 154.226562 102.945312 215.070312 C 117.453125 242.507812 132.453125 270.875 147.285156 291.027344 C 163.792969 313.464844 178.507812 323.386719 192.292969 321.375 C 224.238281 316.691406 230.214844 287.09375 237.132812 252.820312 C 244.046875 218.566406 251.890625 179.742188 288.394531 159.082031 C 360.019531 118.546875 407.207031 120.03125 407.675781 120.046875 L 407.648438 120.816406 C 407.179688 120.792969 360.1875 119.332031 288.773438 159.753906 C 252.566406 180.242188 244.761719 218.886719 237.878906 252.976562 C 230.90625 287.53125 224.875 317.382812 192.402344 322.140625 C 191.15625 322.320312 189.914062 322.402344 188.675781 322.402344 Z M 188.675781 322.402344 " fill-opacity="1" fill-rule="nonzero"/><path fill="#eec370" d="M 189.960938 333.09375 C 160.011719 333.09375 132.199219 278.59375 102.8125 221.011719 C 70.507812 157.699219 37.097656 92.230469 0.230469 102.9375 L 0.015625 102.199219 C 37.511719 91.324219 71.046875 157.078125 103.496094 220.664062 C 118.144531 249.363281 133.292969 279.046875 148.230469 300.152344 C 164.859375 323.648438 179.644531 334.09375 193.421875 332.070312 C 225.289062 327.40625 230.804688 297.324219 237.1875 262.492188 C 243.59375 227.542969 250.851562 187.9375 287.449219 167.222656 C 324.855469 146.046875 355.523438 134.351562 374.664062 128.269531 C 395.417969 121.675781 407.484375 120.0625 407.609375 120.046875 L 407.707031 120.808594 C 407.585938 120.824219 395.566406 122.429688 374.875 129.007812 C 355.769531 135.082031 325.164062 146.761719 287.828125 167.890625 C 251.542969 188.429688 244.316406 227.851562 237.941406 262.628906 C 231.503906 297.753906 225.945312 328.082031 193.53125 332.832031 C 192.339844 333.003906 191.148438 333.09375 189.960938 333.09375 Z M 189.960938 333.09375 " fill-opacity="1" fill-rule="nonzero"/></svg>