<svg xmlns="http://www.w3.org/2000/svg" xmlns:xlink="http://www.w3.org/1999/xlink" width="544" zoomAndPan="magnify" viewBox="0 0 408 359.999987" height="480" preserveAspectRatio="xMidYMid meet" version="1.0"><defs><clipPath id="50e5ac1387"><path d="M 25 0 L 384 0 L 384 360 L 25 360 Z M 25 0 " clip-rule="nonzero"/></clipPath><clipPath id="bceb1272f4"><path d="M 380.945312 149.429688 C 379.027344 138.398438 376.078125 127.652344 372.09375 117.191406 C 368.113281 106.726562 363.171875 96.738281 357.265625 87.226562 C 351.421875 77.785156 344.765625 68.960938 337.296875 60.75 C 329.878906 52.613281 321.8125 45.191406 313.089844 38.480469 L 306.984375 33.945312 L 300.191406 29.378906 C 297.816406 27.878906 295.335938 26.402344 292.832031 24.863281 C 290.273438 23.417969 287.625 22.015625 284.980469 20.542969 C 274.09375 14.898438 262.765625 10.367188 250.988281 6.945312 L 246.722656 5.769531 L 244.621094 5.191406 C 243.925781 4.996094 243.21875 4.867188 242.523438 4.703125 L 238.386719 3.777344 C 237.023438 3.484375 235.695312 3.140625 234.355469 2.941406 L 226.640625 1.628906 L 219.511719 0.777344 C 218.949219 0.710938 218.394531 0.636719 217.84375 0.585938 L 216.21875 0.476562 L 213.128906 0.273438 L 210.261719 0.0976562 L 208.914062 0.0195312 L 207.628906 0.0078125 C 204.28125 -0.0117188 201.613281 0.00390625 199.789062 0.0664062 L 209.203125 0.347656 L 213.988281 0.714844 L 216.390625 0.898438 C 217.191406 0.957031 217.996094 1.003906 218.789062 1.121094 L 223.542969 1.726562 C 225.121094 1.941406 226.695312 2.085938 228.230469 2.398438 L 232.800781 3.21875 L 235.039062 3.625 C 235.78125 3.75 236.503906 3.953125 237.222656 4.113281 L 235.554688 3.753906 L 233.816406 3.464844 L 230.195312 2.871094 C 228.964844 2.675781 227.707031 2.441406 226.425781 2.265625 L 222.527344 1.808594 L 226.347656 2.296875 C 227.640625 2.488281 228.933594 2.75 230.214844 2.972656 C 232.78125 3.453125 235.328125 3.8125 237.605469 4.375 C 235.714844 3.917969 233.773438 3.621094 232.132812 3.355469 C 230.492188 3.089844 229.144531 2.878906 228.40625 2.785156 L 233.238281 3.644531 C 234.085938 3.800781 234.957031 3.921875 235.820312 4.105469 L 238.394531 4.679688 L 243.296875 5.757812 C 244.066406 5.910156 244.785156 6.128906 245.460938 6.308594 L 247.347656 6.824219 C 250.078125 7.402344 262.339844 11.246094 265.675781 12.804688 C 256.789062 9.378906 245.222656 5.988281 237.585938 4.671875 C 240.777344 5.433594 243.972656 6.066406 247.019531 7.027344 C 246.0625 6.777344 244.890625 6.433594 243.617188 6.121094 L 239.664062 5.246094 L 236.070312 4.460938 C 235.027344 4.222656 234.167969 4.136719 233.675781 4.054688 L 235.171875 4.320312 C 235.664062 4.410156 236.148438 4.539062 236.636719 4.644531 L 239.515625 5.300781 L 242.363281 5.949219 L 243.78125 6.273438 C 244.25 6.390625 244.714844 6.53125 245.183594 6.660156 L 250.84375 8.253906 L 252.292969 8.667969 L 253.734375 9.152344 L 256.6875 10.15625 L 259.09375 10.980469 C 259.886719 11.25 260.671875 11.507812 261.433594 11.828125 L 265.960938 13.628906 L 268.199219 14.519531 C 268.945312 14.816406 269.667969 15.171875 270.398438 15.492188 L 274.835938 17.488281 L 269.117188 14.945312 C 267.117188 14.101562 265.03125 13.335938 263.039062 12.550781 C 262.039062 12.171875 261.066406 11.765625 260.105469 11.4375 L 257.3125 10.515625 L 252.65625 9.015625 L 257.890625 10.820312 L 260.554688 11.730469 L 263.164062 12.761719 C 262.738281 12.605469 262.488281 12.523438 262.390625 12.5 L 267.550781 14.578125 C 267.59375 14.613281 267.644531 14.644531 267.691406 14.671875 L 267.714844 14.667969 L 268.960938 15.226562 C 276.53125 18.597656 283.867188 22.417969 290.976562 26.683594 C 292.769531 27.820312 294.507812 28.96875 296.226562 30.085938 C 297.074219 30.660156 297.949219 31.183594 298.757812 31.789062 L 301.179688 33.570312 L 303.566406 35.34375 C 304.355469 35.929688 305.152344 36.503906 305.894531 37.144531 L 310.386719 40.867188 C 316.355469 46.050781 322.019531 51.550781 327.378906 57.363281 C 334.449219 64.933594 340.671875 73.148438 346.050781 82.003906 C 351.46875 91.003906 356.183594 100.359375 360.1875 110.074219 C 364.007812 119.210938 367.070312 128.597656 369.378906 138.226562 L 370.253906 141.855469 C 370.546875 143.066406 370.734375 144.300781 370.976562 145.523438 L 371.671875 149.199219 L 372.019531 151.039062 L 372.273438 152.894531 C 372.601562 155.371094 372.984375 157.847656 373.269531 160.332031 C 373.484375 162.828125 373.699219 165.324219 373.914062 167.820312 C 374.535156 177.867188 374.277344 187.890625 373.140625 197.890625 L 372.65625 201.625 C 372.480469 202.867188 372.359375 204.117188 372.101562 205.34375 L 370.714844 212.726562 C 370.113281 215.15625 369.515625 217.582031 368.917969 220.007812 C 368.640625 221.226562 368.238281 222.410156 367.878906 223.601562 L 366.773438 227.171875 C 363.882812 235.988281 360.347656 244.539062 356.167969 252.824219 C 351.992188 260.878906 347.246094 268.582031 341.933594 275.933594 C 336.710938 283.160156 330.941406 289.917969 324.628906 296.210938 C 321.566406 299.390625 318.25 302.300781 314.992188 305.230469 L 309.917969 309.410156 C 309.089844 310.125 308.199219 310.761719 307.324219 311.417969 L 304.695312 313.378906 C 303.816406 314.023438 302.957031 314.695312 302.0625 315.316406 L 299.347656 317.136719 L 296.636719 318.960938 C 296.179688 319.257812 295.742188 319.578125 295.273438 319.855469 L 293.875 320.699219 L 288.285156 324.050781 L 282.546875 327.121094 C 274.824219 331.074219 266.847656 334.421875 258.617188 337.160156 C 250.363281 339.800781 241.957031 341.800781 233.398438 343.160156 C 224.796875 344.414062 216.148438 344.988281 207.457031 344.878906 C 199.539062 344.753906 191.671875 344.078125 183.851562 342.859375 C 176.03125 341.640625 168.332031 339.886719 160.753906 337.601562 C 153.175781 335.3125 145.789062 332.511719 138.597656 329.199219 C 131.410156 325.886719 124.480469 322.09375 117.816406 317.820312 C 109.039062 312.199219 100.792969 305.882812 93.082031 298.871094 C 86.425781 292.753906 80.34375 286.109375 74.839844 278.933594 C 68.292969 270.378906 62.558594 261.3125 57.640625 251.730469 C 57.023438 250.511719 56.402344 249.296875 55.785156 248.085938 L 55.320312 247.179688 L 54.902344 246.253906 L 54.066406 244.40625 C 53.511719 243.171875 52.9375 241.957031 52.371094 240.75 C 52.074219 240.148438 51.832031 239.527344 51.582031 238.914062 C 51.332031 238.300781 51.078125 237.6875 50.828125 237.078125 C 50.320312 235.863281 49.816406 234.65625 49.316406 233.457031 C 49.050781 232.863281 48.847656 232.253906 48.625 231.648438 C 48.398438 231.046875 48.183594 230.445312 47.964844 229.847656 C 47.53125 228.65625 47.078125 227.480469 46.632812 226.316406 L 46.296875 225.449219 L 46.007812 224.570312 C 45.816406 223.988281 45.625 223.410156 45.433594 222.835938 C 45.042969 221.6875 44.660156 220.558594 44.285156 219.445312 L 43.714844 217.789062 C 43.550781 217.234375 43.390625 216.6875 43.230469 216.144531 C 42.597656 213.96875 41.914062 211.886719 41.289062 209.890625 C 40.210938 205.859375 39.003906 202.25 38.15625 199.097656 C 38.34375 200.164062 38.53125 201.234375 38.71875 202.304688 C 38.953125 203.363281 39.191406 204.425781 39.429688 205.488281 L 40.128906 208.679688 L 40.46875 210.277344 C 40.597656 210.804688 40.75 211.332031 40.886719 211.859375 C 41.457031 213.96875 41.980469 216.089844 42.507812 218.214844 C 43.136719 220.308594 43.765625 222.410156 44.394531 224.511719 C 44.554688 225.035156 44.691406 225.570312 44.867188 226.085938 L 45.40625 227.644531 L 46.46875 230.765625 C 46.828125 231.800781 47.136719 232.859375 47.53125 233.886719 L 48.71875 236.96875 L 49.890625 240.054688 L 50.1875 240.828125 L 50.515625 241.585938 L 51.175781 243.101562 L 52.472656 246.144531 C 52.902344 247.160156 53.304688 248.1875 53.804688 249.171875 C 54.75 251.167969 55.695312 253.160156 56.640625 255.152344 C 57.675781 257.097656 58.707031 259.046875 59.714844 261.007812 C 59.976562 261.492188 60.210938 261.996094 60.488281 262.46875 L 61.320312 263.894531 L 62.972656 266.753906 C 63.539062 267.699219 64.042969 268.679688 64.648438 269.597656 L 66.421875 272.375 L 68.183594 275.160156 C 68.765625 276.09375 69.429688 276.960938 70.046875 277.867188 C 70.671875 278.765625 71.300781 279.660156 71.925781 280.558594 L 72.863281 281.902344 C 73.171875 282.355469 73.523438 282.773438 73.851562 283.207031 L 77.816406 288.398438 L 81.992188 293.367188 C 75.332031 286.5625 69.320312 279.226562 63.945312 271.363281 L 62.910156 269.910156 L 61.949219 268.402344 L 60.015625 265.390625 C 58.679688 263.40625 57.53125 261.308594 56.332031 259.242188 C 55.738281 258.207031 55.121094 257.179688 54.539062 256.136719 L 52.894531 252.945312 L 51.242188 249.757812 C 50.6875 248.695312 50.230469 247.582031 49.71875 246.5 C 47.648438 242.175781 45.855469 237.71875 44.152344 233.226562 C 43.378906 230.953125 42.546875 228.695312 41.777344 226.414062 L 39.699219 219.496094 C 39.070312 217.175781 38.542969 214.824219 37.941406 212.488281 C 37.796875 211.902344 37.628906 211.324219 37.511719 210.730469 L 37.15625 208.957031 L 36.449219 205.40625 C 35.921875 203.050781 35.621094 200.652344 35.257812 198.265625 L 34.710938 194.679688 L 34.339844 191.070312 C 32.28125 171.628906 33.324219 152.351562 37.464844 133.242188 L 38.273438 129.695312 C 38.542969 128.507812 38.785156 127.316406 39.136719 126.15625 C 39.785156 123.816406 40.4375 121.476562 41.085938 119.140625 C 41.839844 116.832031 42.597656 114.523438 43.347656 112.21875 C 43.523438 111.636719 43.746094 111.074219 43.964844 110.507812 L 44.609375 108.808594 L 45.898438 105.398438 C 49.484375 96.359375 53.78125 87.675781 58.789062 79.339844 C 54.070312 87.066406 49.957031 95.101562 46.445312 103.449219 C 43.042969 111.753906 40.238281 120.253906 38.027344 128.953125 L 36.488281 135.457031 L 35.257812 142.015625 L 34.945312 143.652344 L 34.714844 145.304688 L 34.253906 148.601562 L 33.777344 151.894531 L 33.464844 155.203125 L 33.148438 158.511719 L 32.984375 160.160156 C 32.929688 160.710938 32.925781 161.265625 32.890625 161.820312 L 32.554688 168.445312 C 32.496094 170.652344 32.527344 172.867188 32.503906 175.074219 L 32.492188 176.730469 L 32.484375 177.554688 L 32.519531 178.382812 L 32.652344 181.691406 C 32.730469 186.105469 33.226562 190.484375 33.59375 194.867188 L 34.46875 201.40625 L 34.679688 203.039062 L 34.972656 204.660156 L 35.558594 207.898438 C 37.128906 216.539062 39.332031 225.019531 42.167969 233.332031 L 42.667969 234.894531 C 42.839844 235.414062 43.050781 235.921875 43.238281 236.433594 L 44.394531 239.507812 L 45.542969 242.582031 C 45.960938 243.59375 46.40625 244.59375 46.835938 245.601562 L 48.121094 248.621094 L 48.761719 250.136719 C 48.988281 250.632812 49.234375 251.121094 49.46875 251.617188 C 50.417969 253.589844 51.367188 255.5625 52.3125 257.535156 C 56.332031 265.332031 60.855469 272.824219 65.882812 280.011719 C 70.929688 287.207031 76.488281 293.984375 82.558594 300.339844 C 84.074219 301.921875 85.550781 303.554688 87.167969 305.039062 C 88.761719 306.546875 90.316406 308.105469 91.945312 309.578125 L 96.910156 313.914062 C 97.71875 314.660156 98.609375 315.304688 99.460938 315.996094 L 102.042969 318.046875 C 102.914062 318.71875 103.746094 319.449219 104.644531 320.078125 L 107.320312 322.003906 C 109.105469 323.285156 110.863281 324.613281 112.730469 325.773438 C 114.578125 326.960938 116.398438 328.203125 118.273438 329.359375 L 123.96875 332.695312 C 131.671875 336.984375 139.636719 340.710938 147.863281 343.878906 C 156.136719 346.9375 164.574219 349.417969 173.183594 351.332031 C 181.8125 353.109375 190.523438 354.3125 199.316406 354.941406 C 201.507812 355.070312 203.707031 355.117188 205.902344 355.214844 C 207 355.25 208.101562 355.308594 209.199219 355.324219 L 212.496094 355.285156 L 215.789062 355.246094 C 216.890625 355.222656 217.992188 355.246094 219.085938 355.152344 L 225.660156 354.742188 C 226.207031 354.703125 226.757812 354.6875 227.304688 354.625 L 228.9375 354.441406 L 232.207031 354.078125 L 235.484375 353.710938 C 236.574219 353.582031 237.648438 353.371094 238.730469 353.207031 C 240.894531 352.847656 243.066406 352.523438 245.222656 352.128906 L 251.652344 350.757812 C 249.171875 351.386719 246.699219 352.082031 244.1875 352.660156 L 236.582031 354.226562 C 234.023438 354.667969 231.4375 355.03125 228.855469 355.4375 C 228.207031 355.527344 227.5625 355.648438 226.910156 355.71875 L 224.953125 355.917969 L 221.027344 356.316406 C 210.375 357.273438 199.71875 357.300781 189.0625 356.394531 C 178.167969 355.476562 167.460938 353.535156 156.9375 350.574219 C 148.855469 348.3125 140.980469 345.484375 133.304688 342.089844 C 125.628906 338.699219 118.234375 334.777344 111.121094 330.324219 C 104.007812 325.875 97.246094 320.9375 90.839844 315.515625 C 84.433594 310.09375 78.445312 304.246094 72.875 297.964844 C 65.371094 289.523438 58.722656 280.460938 52.925781 270.769531 C 47.128906 261.074219 42.285156 250.929688 38.394531 240.324219 C 36.507812 235.121094 34.855469 229.839844 33.4375 224.488281 C 32.019531 219.136719 30.84375 213.730469 29.910156 208.273438 C 28.976562 202.816406 28.285156 197.328125 27.839844 191.808594 C 27.390625 186.289062 27.191406 180.761719 27.238281 175.226562 C 27.285156 169.6875 27.578125 164.164062 28.117188 158.65625 C 28.65625 153.144531 29.441406 147.667969 30.46875 142.226562 C 31.496094 136.785156 32.761719 131.402344 34.269531 126.074219 C 35.777344 120.746094 37.515625 115.496094 39.492188 110.324219 C 43.335938 100.316406 48.046875 90.734375 53.621094 81.578125 C 59.195312 72.421875 65.546875 63.84375 72.671875 55.835938 C 79.589844 48.082031 87.152344 41.015625 95.355469 34.636719 L 98.414062 32.335938 L 99.941406 31.191406 L 100.703125 30.617188 L 101.488281 30.082031 L 107.773438 25.84375 L 114.207031 21.960938 C 115.261719 21.292969 116.378906 20.746094 117.46875 20.148438 L 120.746094 18.398438 L 122.742188 17.332031 L 124.8125 16.355469 L 128.996094 14.382812 C 130.382812 13.695312 131.828125 13.125 133.253906 12.539062 L 137.515625 10.789062 L 138.574219 10.359375 L 139.640625 9.980469 L 141.753906 9.234375 L 145.878906 7.78125 L 146.882812 7.429688 L 147.890625 7.128906 L 149.863281 6.542969 L 153.621094 5.425781 C 143.941406 8.039062 134.574219 11.507812 125.53125 15.84375 C 116.085938 20.332031 107.128906 25.648438 98.664062 31.789062 C 90.199219 37.929688 82.363281 44.792969 75.160156 52.375 C 67.753906 60.199219 61.117188 68.628906 55.253906 77.667969 C 49.289062 86.867188 44.191406 96.527344 39.957031 106.644531 C 35.722656 116.761719 32.421875 127.171875 30.050781 137.882812 C 27.640625 148.773438 26.199219 159.789062 25.726562 170.933594 C 25.253906 182.082031 25.757812 193.179688 27.242188 204.238281 C 28.773438 215.417969 31.316406 226.367188 34.878906 237.074219 C 38.4375 247.785156 42.949219 258.078125 48.417969 267.949219 C 53.902344 277.851562 60.265625 287.148438 67.503906 295.84375 C 74.746094 304.539062 82.738281 312.480469 91.480469 319.664062 C 100.125 326.761719 109.359375 332.980469 119.179688 338.328125 C 129.003906 343.675781 139.238281 348.054688 149.886719 351.460938 C 160.328125 354.792969 170.984375 357.160156 181.851562 358.558594 L 189.910156 359.402344 C 192.59375 359.597656 195.277344 359.699219 197.953125 359.851562 C 198.621094 359.882812 199.289062 359.925781 199.957031 359.945312 L 201.960938 359.949219 L 205.960938 359.953125 L 207.957031 359.953125 C 208.621094 359.953125 209.289062 359.960938 209.949219 359.914062 L 213.921875 359.714844 L 217.566406 359.53125 L 218.476562 359.480469 L 219.382812 359.390625 L 221.199219 359.203125 L 224.832031 358.832031 L 226.652344 358.644531 C 227.261719 358.585938 227.867188 358.515625 228.464844 358.414062 L 235.699219 357.289062 C 236.914062 357.128906 238.097656 356.828125 239.296875 356.597656 L 242.886719 355.847656 C 252.484375 353.738281 261.855469 350.871094 270.992188 347.25 C 280.140625 343.53125 288.9375 339.109375 297.378906 333.980469 L 300.523438 332.015625 L 302.878906 330.539062 L 303.640625 330.007812 L 309.730469 325.765625 C 311.71875 324.292969 313.660156 322.753906 315.625 321.242188 L 317.09375 320.101562 L 318.507812 318.898438 L 321.335938 316.484375 C 351.5 290.65625 372.617188 254.050781 380.035156 214.5625 C 382.144531 203.824219 383.277344 192.980469 383.429688 182.039062 C 383.582031 171.09375 382.753906 160.226562 380.945312 149.429688 Z M 380.945312 149.429688 " clip-rule="nonzero"/></clipPath><linearGradient x1="-0.508287" gradientTransform="matrix(0.587068, 0, 0, 0.587563, 25.55281, 0)" y1="306.31299" x2="609.856822" gradientUnits="userSpaceOnUse" y2="306.31299" id="28c2a6fbac"><stop stop-opacity="1" stop-color="rgb(68.998718%, 53.69873%, 23.899841%)" offset="0"/><stop stop-opacity="1" stop-color="rgb(68.998718%, 53.69873%, 23.899841%)" offset="0.125"/><stop stop-opacity="1" stop-color="rgb(69.082642%, 53.794861%, 24.006653%)" offset="0.15625"/><stop stop-opacity="1" stop-color="rgb(69.34967%, 54.100037%, 24.349976%)" offset="0.160156"/><stop stop-opacity="1" stop-color="rgb(69.532776%, 54.309082%, 24.584961%)" offset="0.164063"/><stop stop-opacity="1" stop-color="rgb(69.714355%, 54.516602%, 24.819946%)" offset="0.167969"/><stop stop-opacity="1" stop-color="rgb(69.897461%, 54.725647%, 25.054932%)" offset="0.171875"/><stop stop-opacity="1" stop-color="rgb(70.079041%, 54.934692%, 25.288391%)" offset="0.175781"/><stop stop-opacity="1" stop-color="rgb(70.262146%, 55.143738%, 25.523376%)" offset="0.179688"/><stop stop-opacity="1" stop-color="rgb(70.443726%, 55.351257%, 25.758362%)" offset="0.183594"/><stop stop-opacity="1" stop-color="rgb(70.626831%, 55.560303%, 25.993347%)" offset="0.1875"/><stop stop-opacity="1" stop-color="rgb(70.809937%, 55.767822%, 26.226807%)" offset="0.191406"/><stop stop-opacity="1" stop-color="rgb(70.993042%, 55.976868%, 26.461792%)" offset="0.195313"/><stop stop-opacity="1" stop-color="rgb(71.174622%, 56.185913%, 26.696777%)" offset="0.199219"/><stop stop-opacity="1" stop-color="rgb(71.357727%, 56.394958%, 26.931763%)" offset="0.203125"/><stop stop-opacity="1" stop-color="rgb(71.539307%, 56.602478%, 27.165222%)" offset="0.207031"/><stop stop-opacity="1" stop-color="rgb(71.722412%, 56.811523%, 27.400208%)" offset="0.210938"/><stop stop-opacity="1" stop-color="rgb(72.003174%, 57.136536%, 27.74353%)" offset="0.214844"/><stop stop-opacity="1" stop-color="rgb(72.285461%, 57.461548%, 28.086853%)" offset="0.21875"/><stop stop-opacity="1" stop-color="rgb(72.593689%, 57.817078%, 28.457642%)" offset="0.222656"/><stop stop-opacity="1" stop-color="rgb(72.901917%, 58.172607%, 28.82843%)" offset="0.226563"/><stop stop-opacity="1" stop-color="rgb(73.210144%, 58.528137%, 29.199219%)" offset="0.230469"/><stop stop-opacity="1" stop-color="rgb(73.518372%, 58.883667%, 29.571533%)" offset="0.234375"/><stop stop-opacity="1" stop-color="rgb(73.826599%, 59.239197%, 29.942322%)" offset="0.238281"/><stop stop-opacity="1" stop-color="rgb(74.134827%, 59.594727%, 30.314636%)" offset="0.242188"/><stop stop-opacity="1" stop-color="rgb(74.443054%, 59.950256%, 30.685425%)" offset="0.246094"/><stop stop-opacity="1" stop-color="rgb(74.751282%, 60.305786%, 31.056213%)" offset="0.25"/><stop stop-opacity="1" stop-color="rgb(75.059509%, 60.661316%, 31.427002%)" offset="0.253906"/><stop stop-opacity="1" stop-color="rgb(75.367737%, 61.016846%, 31.799316%)" offset="0.257813"/><stop stop-opacity="1" stop-color="rgb(75.675964%, 61.372375%, 32.170105%)" offset="0.261719"/><stop stop-opacity="1" stop-color="rgb(75.984192%, 61.727905%, 32.542419%)" offset="0.265625"/><stop stop-opacity="1" stop-color="rgb(76.292419%, 62.083435%, 32.913208%)" offset="0.269531"/><stop stop-opacity="1" stop-color="rgb(76.600647%, 62.438965%, 33.285522%)" offset="0.273438"/><stop stop-opacity="1" stop-color="rgb(76.908875%, 62.794495%, 33.656311%)" offset="0.277344"/><stop stop-opacity="1" stop-color="rgb(77.217102%, 63.150024%, 34.0271%)" offset="0.28125"/><stop stop-opacity="1" stop-color="rgb(77.523804%, 63.505554%, 34.397888%)" offset="0.285156"/><stop stop-opacity="1" stop-color="rgb(77.832031%, 63.861084%, 34.770203%)" offset="0.289062"/><stop stop-opacity="1" stop-color="rgb(78.140259%, 64.216614%, 35.140991%)" offset="0.292969"/><stop stop-opacity="1" stop-color="rgb(78.448486%, 64.572144%, 35.513306%)" offset="0.296875"/><stop stop-opacity="1" stop-color="rgb(78.756714%, 64.927673%, 35.884094%)" offset="0.300781"/><stop stop-opacity="1" stop-color="rgb(79.064941%, 65.283203%, 36.256409%)" offset="0.304688"/><stop stop-opacity="1" stop-color="rgb(79.380798%, 65.646362%, 36.637878%)" offset="0.308594"/><stop stop-opacity="1" stop-color="rgb(79.698181%, 66.009521%, 37.020874%)" offset="0.3125"/><stop stop-opacity="1" stop-color="rgb(80.067444%, 66.421509%, 37.475586%)" offset="0.316406"/><stop stop-opacity="1" stop-color="rgb(80.438232%, 66.833496%, 37.930298%)" offset="0.320312"/><stop stop-opacity="1" stop-color="rgb(80.807495%, 67.245483%, 38.383484%)" offset="0.324219"/><stop stop-opacity="1" stop-color="rgb(81.178284%, 67.658997%, 38.838196%)" offset="0.328125"/><stop stop-opacity="1" stop-color="rgb(81.547546%, 68.070984%, 39.292908%)" offset="0.332031"/><stop stop-opacity="1" stop-color="rgb(81.918335%, 68.482971%, 39.74762%)" offset="0.335938"/><stop stop-opacity="1" stop-color="rgb(82.287598%, 68.894958%, 40.202332%)" offset="0.339844"/><stop stop-opacity="1" stop-color="rgb(82.658386%, 69.306946%, 40.657043%)" offset="0.34375"/><stop stop-opacity="1" stop-color="rgb(82.910156%, 69.615173%, 40.959167%)" offset="0.347656"/><stop stop-opacity="1" stop-color="rgb(83.161926%, 69.924927%, 41.262817%)" offset="0.351562"/><stop stop-opacity="1" stop-color="rgb(83.239746%, 70.080566%, 41.340637%)" offset="0.359375"/><stop stop-opacity="1" stop-color="rgb(83.396912%, 70.393372%, 41.496277%)" offset="0.367187"/><stop stop-opacity="1" stop-color="rgb(83.558655%, 70.700073%, 41.641235%)" offset="0.375"/><stop stop-opacity="1" stop-color="rgb(83.726501%, 70.999146%, 41.769409%)" offset="0.382813"/><stop stop-opacity="1" stop-color="rgb(83.895874%, 71.295166%, 41.897583%)" offset="0.390625"/><stop stop-opacity="1" stop-color="rgb(84.066772%, 71.592712%, 42.024231%)" offset="0.398438"/><stop stop-opacity="1" stop-color="rgb(84.236145%, 71.888733%, 42.152405%)" offset="0.40625"/><stop stop-opacity="1" stop-color="rgb(84.405518%, 72.186279%, 42.279053%)" offset="0.414062"/><stop stop-opacity="1" stop-color="rgb(84.57489%, 72.4823%, 42.405701%)" offset="0.421875"/><stop stop-opacity="1" stop-color="rgb(84.744263%, 72.779846%, 42.533875%)" offset="0.429688"/><stop stop-opacity="1" stop-color="rgb(84.915161%, 73.075867%, 42.660522%)" offset="0.4375"/><stop stop-opacity="1" stop-color="rgb(85.084534%, 73.373413%, 42.78717%)" offset="0.445312"/><stop stop-opacity="1" stop-color="rgb(85.253906%, 73.669434%, 42.915344%)" offset="0.453125"/><stop stop-opacity="1" stop-color="rgb(85.423279%, 73.96698%, 43.041992%)" offset="0.460938"/><stop stop-opacity="1" stop-color="rgb(85.592651%, 74.264526%, 43.170166%)" offset="0.46875"/><stop stop-opacity="1" stop-color="rgb(85.762024%, 74.560547%, 43.296814%)" offset="0.476562"/><stop stop-opacity="1" stop-color="rgb(85.932922%, 74.858093%, 43.423462%)" offset="0.484375"/><stop stop-opacity="1" stop-color="rgb(86.102295%, 75.154114%, 43.551636%)" offset="0.492187"/><stop stop-opacity="1" stop-color="rgb(86.271667%, 75.45166%, 43.678284%)" offset="0.5"/><stop stop-opacity="1" stop-color="rgb(86.44104%, 75.747681%, 43.804932%)" offset="0.507812"/><stop stop-opacity="1" stop-color="rgb(86.610413%, 76.045227%, 43.933105%)" offset="0.515625"/><stop stop-opacity="1" stop-color="rgb(86.779785%, 76.341248%, 44.059753%)" offset="0.523438"/><stop stop-opacity="1" stop-color="rgb(86.950684%, 76.638794%, 44.187927%)" offset="0.53125"/><stop stop-opacity="1" stop-color="rgb(87.181091%, 77.052307%, 44.595337%)" offset="0.535156"/><stop stop-opacity="1" stop-color="rgb(87.327576%, 77.31781%, 44.940186%)" offset="0.539063"/><stop stop-opacity="1" stop-color="rgb(87.510681%, 77.651978%, 45.452881%)" offset="0.542969"/><stop stop-opacity="1" stop-color="rgb(87.695312%, 77.987671%, 45.967102%)" offset="0.546875"/><stop stop-opacity="1" stop-color="rgb(87.878418%, 78.323364%, 46.479797%)" offset="0.550781"/><stop stop-opacity="1" stop-color="rgb(88.061523%, 78.659058%, 46.992493%)" offset="0.554688"/><stop stop-opacity="1" stop-color="rgb(88.244629%, 78.993225%, 47.505188%)" offset="0.558594"/><stop stop-opacity="1" stop-color="rgb(88.427734%, 79.328918%, 48.019409%)" offset="0.5625"/><stop stop-opacity="1" stop-color="rgb(88.61084%, 79.663086%, 48.532104%)" offset="0.566406"/><stop stop-opacity="1" stop-color="rgb(88.793945%, 79.998779%, 49.046326%)" offset="0.570312"/><stop stop-opacity="1" stop-color="rgb(88.977051%, 80.334473%, 49.559021%)" offset="0.574219"/><stop stop-opacity="1" stop-color="rgb(89.161682%, 80.670166%, 50.073242%)" offset="0.578125"/><stop stop-opacity="1" stop-color="rgb(89.344788%, 81.004333%, 50.585938%)" offset="0.582031"/><stop stop-opacity="1" stop-color="rgb(89.527893%, 81.340027%, 51.100159%)" offset="0.585938"/><stop stop-opacity="1" stop-color="rgb(89.710999%, 81.67572%, 51.612854%)" offset="0.589844"/><stop stop-opacity="1" stop-color="rgb(89.894104%, 82.011414%, 52.125549%)" offset="0.59375"/><stop stop-opacity="1" stop-color="rgb(90.077209%, 82.345581%, 52.638245%)" offset="0.597656"/><stop stop-opacity="1" stop-color="rgb(90.261841%, 82.681274%, 53.152466%)" offset="0.601562"/><stop stop-opacity="1" stop-color="rgb(90.444946%, 83.015442%, 53.665161%)" offset="0.605469"/><stop stop-opacity="1" stop-color="rgb(90.628052%, 83.351135%, 54.179382%)" offset="0.609375"/><stop stop-opacity="1" stop-color="rgb(90.811157%, 83.686829%, 54.692078%)" offset="0.613281"/><stop stop-opacity="1" stop-color="rgb(90.994263%, 84.022522%, 55.206299%)" offset="0.617188"/><stop stop-opacity="1" stop-color="rgb(91.177368%, 84.356689%, 55.718994%)" offset="0.621094"/><stop stop-opacity="1" stop-color="rgb(91.360474%, 84.692383%, 56.233215%)" offset="0.625"/><stop stop-opacity="1" stop-color="rgb(91.543579%, 85.02655%, 56.745911%)" offset="0.628906"/><stop stop-opacity="1" stop-color="rgb(91.72821%, 85.362244%, 57.260132%)" offset="0.632812"/><stop stop-opacity="1" stop-color="rgb(91.911316%, 85.697937%, 57.772827%)" offset="0.636719"/><stop stop-opacity="1" stop-color="rgb(92.094421%, 86.03363%, 58.285522%)" offset="0.640625"/><stop stop-opacity="1" stop-color="rgb(92.277527%, 86.367798%, 58.798218%)" offset="0.644531"/><stop stop-opacity="1" stop-color="rgb(92.460632%, 86.703491%, 59.312439%)" offset="0.648438"/><stop stop-opacity="1" stop-color="rgb(92.643738%, 87.039185%, 59.825134%)" offset="0.652344"/><stop stop-opacity="1" stop-color="rgb(92.828369%, 87.374878%, 60.339355%)" offset="0.65625"/><stop stop-opacity="1" stop-color="rgb(93.011475%, 87.709045%, 60.852051%)" offset="0.660156"/><stop stop-opacity="1" stop-color="rgb(93.19458%, 88.044739%, 61.366272%)" offset="0.664062"/><stop stop-opacity="1" stop-color="rgb(93.377686%, 88.378906%, 61.878967%)" offset="0.667969"/><stop stop-opacity="1" stop-color="rgb(93.560791%, 88.7146%, 62.393188%)" offset="0.671875"/><stop stop-opacity="1" stop-color="rgb(93.743896%, 89.050293%, 62.905884%)" offset="0.675781"/><stop stop-opacity="1" stop-color="rgb(93.928528%, 89.385986%, 63.418579%)" offset="0.679688"/><stop stop-opacity="1" stop-color="rgb(94.111633%, 89.720154%, 63.931274%)" offset="0.683594"/><stop stop-opacity="1" stop-color="rgb(94.294739%, 90.055847%, 64.445496%)" offset="0.6875"/><stop stop-opacity="1" stop-color="rgb(94.477844%, 90.391541%, 64.958191%)" offset="0.691406"/><stop stop-opacity="1" stop-color="rgb(94.66095%, 90.727234%, 65.472412%)" offset="0.695312"/><stop stop-opacity="1" stop-color="rgb(94.844055%, 91.061401%, 65.985107%)" offset="0.699219"/><stop stop-opacity="1" stop-color="rgb(95.027161%, 91.397095%, 66.499329%)" offset="0.703125"/><stop stop-opacity="1" stop-color="rgb(95.210266%, 91.731262%, 67.012024%)" offset="0.707031"/><stop stop-opacity="1" stop-color="rgb(95.394897%, 92.066956%, 67.526245%)" offset="0.710937"/><stop stop-opacity="1" stop-color="rgb(95.578003%, 92.402649%, 68.03894%)" offset="0.714844"/><stop stop-opacity="1" stop-color="rgb(95.761108%, 92.738342%, 68.551636%)" offset="0.71875"/><stop stop-opacity="1" stop-color="rgb(95.944214%, 93.07251%, 69.064331%)" offset="0.722656"/><stop stop-opacity="1" stop-color="rgb(96.127319%, 93.408203%, 69.578552%)" offset="0.726562"/><stop stop-opacity="1" stop-color="rgb(96.310425%, 93.743896%, 70.091248%)" offset="0.730469"/><stop stop-opacity="1" stop-color="rgb(96.495056%, 94.07959%, 70.605469%)" offset="0.734375"/><stop stop-opacity="1" stop-color="rgb(96.678162%, 94.413757%, 71.118164%)" offset="0.738281"/><stop stop-opacity="1" stop-color="rgb(96.861267%, 94.749451%, 71.632385%)" offset="0.742188"/><stop stop-opacity="1" stop-color="rgb(97.044373%, 95.083618%, 72.145081%)" offset="0.746094"/><stop stop-opacity="1" stop-color="rgb(97.227478%, 95.419312%, 72.659302%)" offset="0.75"/><stop stop-opacity="1" stop-color="rgb(97.410583%, 95.755005%, 73.171997%)" offset="0.753906"/><stop stop-opacity="1" stop-color="rgb(97.593689%, 96.090698%, 73.686218%)" offset="0.757812"/><stop stop-opacity="1" stop-color="rgb(97.077942%, 95.326233%, 72.790527%)" offset="0.761719"/><stop stop-opacity="1" stop-color="rgb(96.562195%, 94.561768%, 71.896362%)" offset="0.765625"/><stop stop-opacity="1" stop-color="rgb(96.037292%, 93.782043%, 70.982361%)" offset="0.769531"/><stop stop-opacity="1" stop-color="rgb(95.51239%, 93.002319%, 70.069885%)" offset="0.773438"/><stop stop-opacity="1" stop-color="rgb(94.985962%, 92.222595%, 69.155884%)" offset="0.777344"/><stop stop-opacity="1" stop-color="rgb(94.46106%, 91.444397%, 68.241882%)" offset="0.78125"/><stop stop-opacity="1" stop-color="rgb(93.936157%, 90.664673%, 67.327881%)" offset="0.785156"/><stop stop-opacity="1" stop-color="rgb(93.411255%, 89.886475%, 66.415405%)" offset="0.789063"/><stop stop-opacity="1" stop-color="rgb(92.884827%, 89.10675%, 65.501404%)" offset="0.792969"/><stop stop-opacity="1" stop-color="rgb(92.359924%, 88.327026%, 64.588928%)" offset="0.796875"/><stop stop-opacity="1" stop-color="rgb(91.833496%, 87.547302%, 63.674927%)" offset="0.800781"/><stop stop-opacity="1" stop-color="rgb(91.308594%, 86.769104%, 62.760925%)" offset="0.804688"/><stop stop-opacity="1" stop-color="rgb(90.783691%, 85.98938%, 61.846924%)" offset="0.808594"/><stop stop-opacity="1" stop-color="rgb(90.258789%, 85.209656%, 60.934448%)" offset="0.8125"/><stop stop-opacity="1" stop-color="rgb(89.732361%, 84.429932%, 60.020447%)" offset="0.816406"/><stop stop-opacity="1" stop-color="rgb(89.207458%, 83.651733%, 59.107971%)" offset="0.820312"/><stop stop-opacity="1" stop-color="rgb(88.682556%, 82.872009%, 58.19397%)" offset="0.824219"/><stop stop-opacity="1" stop-color="rgb(88.157654%, 82.093811%, 57.279968%)" offset="0.828125"/><stop stop-opacity="1" stop-color="rgb(87.631226%, 81.314087%, 56.365967%)" offset="0.832031"/><stop stop-opacity="1" stop-color="rgb(87.106323%, 80.534363%, 55.453491%)" offset="0.835938"/><stop stop-opacity="1" stop-color="rgb(86.579895%, 79.754639%, 54.53949%)" offset="0.839844"/><stop stop-opacity="1" stop-color="rgb(86.054993%, 78.97644%, 53.625488%)" offset="0.84375"/><stop stop-opacity="1" stop-color="rgb(85.53009%, 78.196716%, 52.711487%)" offset="0.847656"/><stop stop-opacity="1" stop-color="rgb(85.005188%, 77.416992%, 51.799011%)" offset="0.851562"/><stop stop-opacity="1" stop-color="rgb(84.47876%, 76.637268%, 50.88501%)" offset="0.855469"/><stop stop-opacity="1" stop-color="rgb(83.953857%, 75.85907%, 49.972534%)" offset="0.859375"/><stop stop-opacity="1" stop-color="rgb(83.428955%, 75.079346%, 49.058533%)" offset="0.863281"/><stop stop-opacity="1" stop-color="rgb(82.904053%, 74.301147%, 48.144531%)" offset="0.867188"/><stop stop-opacity="1" stop-color="rgb(82.377625%, 73.521423%, 47.23053%)" offset="0.871094"/><stop stop-opacity="1" stop-color="rgb(81.852722%, 72.741699%, 46.318054%)" offset="0.875"/><stop stop-opacity="1" stop-color="rgb(81.326294%, 71.961975%, 45.404053%)" offset="0.878906"/><stop stop-opacity="1" stop-color="rgb(80.801392%, 71.183777%, 44.490051%)" offset="0.882812"/><stop stop-opacity="1" stop-color="rgb(80.276489%, 70.404053%, 43.57605%)" offset="0.886719"/><stop stop-opacity="1" stop-color="rgb(79.751587%, 69.624329%, 42.663574%)" offset="0.890625"/><stop stop-opacity="1" stop-color="rgb(79.196167%, 68.80188%, 41.694641%)" offset="0.894531"/><stop stop-opacity="1" stop-color="rgb(78.640747%, 67.979431%, 40.727234%)" offset="0.898438"/><stop stop-opacity="1" stop-color="rgb(78.08075%, 67.149353%, 39.749146%)" offset="0.902344"/><stop stop-opacity="1" stop-color="rgb(77.520752%, 66.320801%, 38.771057%)" offset="0.90625"/><stop stop-opacity="1" stop-color="rgb(76.960754%, 65.490723%, 37.792969%)" offset="0.910156"/><stop stop-opacity="1" stop-color="rgb(76.400757%, 64.660645%, 36.816406%)" offset="0.914062"/><stop stop-opacity="1" stop-color="rgb(75.839233%, 63.830566%, 35.838318%)" offset="0.917969"/><stop stop-opacity="1" stop-color="rgb(75.279236%, 63.002014%, 34.860229%)" offset="0.921875"/><stop stop-opacity="1" stop-color="rgb(74.719238%, 62.171936%, 33.882141%)" offset="0.925781"/><stop stop-opacity="1" stop-color="rgb(74.159241%, 61.341858%, 32.904053%)" offset="0.929688"/><stop stop-opacity="1" stop-color="rgb(73.599243%, 60.51178%, 31.925964%)" offset="0.933594"/><stop stop-opacity="1" stop-color="rgb(73.039246%, 59.681702%, 30.949402%)" offset="0.9375"/><stop stop-opacity="1" stop-color="rgb(72.477722%, 58.851624%, 29.971313%)" offset="0.941406"/><stop stop-opacity="1" stop-color="rgb(71.917725%, 58.023071%, 28.993225%)" offset="0.945312"/><stop stop-opacity="1" stop-color="rgb(71.357727%, 57.192993%, 28.015137%)" offset="0.949219"/><stop stop-opacity="1" stop-color="rgb(70.797729%, 56.362915%, 27.038574%)" offset="0.953125"/><stop stop-opacity="1" stop-color="rgb(70.237732%, 55.532837%, 26.060486%)" offset="0.957031"/><stop stop-opacity="1" stop-color="rgb(69.677734%, 54.704285%, 25.082397%)" offset="0.960937"/><stop stop-opacity="1" stop-color="rgb(69.337463%, 54.200745%, 24.490356%)" offset="0.964844"/><stop stop-opacity="1" stop-color="rgb(68.998718%, 53.69873%, 23.899841%)" offset="0.96875"/><stop stop-opacity="1" stop-color="rgb(68.998718%, 53.69873%, 23.899841%)" offset="1"/></linearGradient><clipPath id="c1a31e0dfa"><path d="M 267 14 L 268 14 L 268 15 L 267 15 Z M 267 14 " clip-rule="nonzero"/></clipPath><clipPath id="76dfe631f7"><path d="M 267.691406 14.671875 C 267.664062 14.679688 267.636719 14.683594 267.609375 14.683594 C 267.78125 14.734375 267.757812 14.710938 267.691406 14.671875 Z M 267.691406 14.671875 " clip-rule="nonzero"/></clipPath><linearGradient x1="412.315988" gradientTransform="matrix(0.587068, 0, 0, 0.587563, 25.55281, 0)" y1="25.007" x2="412.608008" gradientUnits="userSpaceOnUse" y2="25.007" id="a60e3c7ada"><stop stop-opacity="1" stop-color="rgb(68.998718%, 53.69873%, 23.899841%)" offset="0"/><stop stop-opacity="1" stop-color="rgb(68.998718%, 53.69873%, 23.899841%)" offset="0.0625"/><stop stop-opacity="1" stop-color="rgb(68.998718%, 53.69873%, 23.899841%)" offset="0.09375"/><stop stop-opacity="1" stop-color="rgb(68.998718%, 53.69873%, 23.899841%)" offset="0.109375"/><stop stop-opacity="1" stop-color="rgb(69.046021%, 53.753662%, 23.960876%)" offset="0.117187"/><stop stop-opacity="1" stop-color="rgb(69.334412%, 54.083252%, 24.331665%)" offset="0.121094"/><stop stop-opacity="1" stop-color="rgb(69.5755%, 54.35791%, 24.639893%)" offset="0.125"/><stop stop-opacity="1" stop-color="rgb(69.815063%, 54.631042%, 24.94812%)" offset="0.128906"/><stop stop-opacity="1" stop-color="rgb(70.054626%, 54.905701%, 25.256348%)" offset="0.132812"/><stop stop-opacity="1" stop-color="rgb(70.294189%, 55.178833%, 25.564575%)" offset="0.136719"/><stop stop-opacity="1" stop-color="rgb(70.533752%, 55.453491%, 25.872803%)" offset="0.140625"/><stop stop-opacity="1" stop-color="rgb(70.773315%, 55.726624%, 26.18103%)" offset="0.144531"/><stop stop-opacity="1" stop-color="rgb(71.014404%, 56.001282%, 26.489258%)" offset="0.148438"/><stop stop-opacity="1" stop-color="rgb(71.253967%, 56.27594%, 26.797485%)" offset="0.152344"/><stop stop-opacity="1" stop-color="rgb(71.49353%, 56.550598%, 27.105713%)" offset="0.15625"/><stop stop-opacity="1" stop-color="rgb(71.792603%, 56.893921%, 27.479553%)" offset="0.160156"/><stop stop-opacity="1" stop-color="rgb(72.093201%, 57.23877%, 27.853394%)" offset="0.164062"/><stop stop-opacity="1" stop-color="rgb(72.497559%, 57.705688%, 28.340149%)" offset="0.167969"/><stop stop-opacity="1" stop-color="rgb(72.903442%, 58.172607%, 28.82843%)" offset="0.171875"/><stop stop-opacity="1" stop-color="rgb(73.3078%, 58.639526%, 29.316711%)" offset="0.175781"/><stop stop-opacity="1" stop-color="rgb(73.712158%, 59.106445%, 29.804993%)" offset="0.179688"/><stop stop-opacity="1" stop-color="rgb(74.116516%, 59.573364%, 30.291748%)" offset="0.183594"/><stop stop-opacity="1" stop-color="rgb(74.5224%, 60.041809%, 30.780029%)" offset="0.1875"/><stop stop-opacity="1" stop-color="rgb(74.926758%, 60.508728%, 31.268311%)" offset="0.191406"/><stop stop-opacity="1" stop-color="rgb(75.332642%, 60.975647%, 31.756592%)" offset="0.195313"/><stop stop-opacity="1" stop-color="rgb(75.737%, 61.442566%, 32.244873%)" offset="0.199219"/><stop stop-opacity="1" stop-color="rgb(76.141357%, 61.909485%, 32.733154%)" offset="0.203125"/><stop stop-opacity="1" stop-color="rgb(76.545715%, 62.376404%, 33.21991%)" offset="0.207031"/><stop stop-opacity="1" stop-color="rgb(76.951599%, 62.843323%, 33.708191%)" offset="0.210937"/><stop stop-opacity="1" stop-color="rgb(77.355957%, 63.310242%, 34.196472%)" offset="0.214844"/><stop stop-opacity="1" stop-color="rgb(77.761841%, 63.778687%, 34.684753%)" offset="0.21875"/><stop stop-opacity="1" stop-color="rgb(78.166199%, 64.245605%, 35.171509%)" offset="0.222656"/><stop stop-opacity="1" stop-color="rgb(78.570557%, 64.712524%, 35.65979%)" offset="0.226563"/><stop stop-opacity="1" stop-color="rgb(78.974915%, 65.179443%, 36.148071%)" offset="0.230469"/><stop stop-opacity="1" stop-color="rgb(79.380798%, 65.646362%, 36.636353%)" offset="0.234375"/><stop stop-opacity="1" stop-color="rgb(79.844666%, 66.168213%, 37.203979%)" offset="0.238281"/><stop stop-opacity="1" stop-color="rgb(80.308533%, 66.690063%, 37.771606%)" offset="0.242187"/><stop stop-opacity="1" stop-color="rgb(80.793762%, 67.23175%, 38.368225%)" offset="0.246094"/><stop stop-opacity="1" stop-color="rgb(81.280518%, 67.773438%, 38.96637%)" offset="0.25"/><stop stop-opacity="1" stop-color="rgb(81.767273%, 68.315125%, 39.562988%)" offset="0.253906"/><stop stop-opacity="1" stop-color="rgb(82.254028%, 68.856812%, 40.159607%)" offset="0.257812"/><stop stop-opacity="1" stop-color="rgb(82.688904%, 69.354248%, 40.692139%)" offset="0.261719"/><stop stop-opacity="1" stop-color="rgb(83.125305%, 69.85321%, 41.226196%)" offset="0.265625"/><stop stop-opacity="1" stop-color="rgb(83.227539%, 70.057678%, 41.32843%)" offset="0.269531"/><stop stop-opacity="1" stop-color="rgb(83.331299%, 70.263672%, 41.43219%)" offset="0.273438"/><stop stop-opacity="1" stop-color="rgb(83.435059%, 70.466614%, 41.531372%)" offset="0.277344"/><stop stop-opacity="1" stop-color="rgb(83.540344%, 70.671082%, 41.630554%)" offset="0.28125"/><stop stop-opacity="1" stop-color="rgb(83.651733%, 70.866394%, 41.712952%)" offset="0.289062"/><stop stop-opacity="1" stop-color="rgb(83.874512%, 71.255493%, 41.880798%)" offset="0.296875"/><stop stop-opacity="1" stop-color="rgb(84.09729%, 71.646118%, 42.047119%)" offset="0.304687"/><stop stop-opacity="1" stop-color="rgb(84.320068%, 72.035217%, 42.214966%)" offset="0.3125"/><stop stop-opacity="1" stop-color="rgb(84.542847%, 72.425842%, 42.381287%)" offset="0.320312"/><stop stop-opacity="1" stop-color="rgb(84.765625%, 72.816467%, 42.549133%)" offset="0.328125"/><stop stop-opacity="1" stop-color="rgb(84.988403%, 73.205566%, 42.71698%)" offset="0.335937"/><stop stop-opacity="1" stop-color="rgb(85.211182%, 73.596191%, 42.883301%)" offset="0.34375"/><stop stop-opacity="1" stop-color="rgb(85.43396%, 73.986816%, 43.051147%)" offset="0.351562"/><stop stop-opacity="1" stop-color="rgb(85.658264%, 74.375916%, 43.217468%)" offset="0.359375"/><stop stop-opacity="1" stop-color="rgb(85.881042%, 74.766541%, 43.385315%)" offset="0.367187"/><stop stop-opacity="1" stop-color="rgb(86.103821%, 75.15564%, 43.551636%)" offset="0.375"/><stop stop-opacity="1" stop-color="rgb(86.326599%, 75.546265%, 43.719482%)" offset="0.382812"/><stop stop-opacity="1" stop-color="rgb(86.549377%, 75.93689%, 43.885803%)" offset="0.390625"/><stop stop-opacity="1" stop-color="rgb(86.772156%, 76.325989%, 44.05365%)" offset="0.398437"/><stop stop-opacity="1" stop-color="rgb(86.999512%, 76.724243%, 44.239807%)" offset="0.402344"/><stop stop-opacity="1" stop-color="rgb(87.115479%, 76.927185%, 44.342041%)" offset="0.40625"/><stop stop-opacity="1" stop-color="rgb(87.355042%, 77.368164%, 45.016479%)" offset="0.410156"/><stop stop-opacity="1" stop-color="rgb(87.59613%, 77.809143%, 45.690918%)" offset="0.414062"/><stop stop-opacity="1" stop-color="rgb(87.837219%, 78.248596%, 46.365356%)" offset="0.417969"/><stop stop-opacity="1" stop-color="rgb(88.078308%, 78.689575%, 47.041321%)" offset="0.421875"/><stop stop-opacity="1" stop-color="rgb(88.319397%, 79.129028%, 47.715759%)" offset="0.425781"/><stop stop-opacity="1" stop-color="rgb(88.560486%, 79.570007%, 48.390198%)" offset="0.429688"/><stop stop-opacity="1" stop-color="rgb(88.800049%, 80.010986%, 49.064636%)" offset="0.433594"/><stop stop-opacity="1" stop-color="rgb(89.041138%, 80.451965%, 49.739075%)" offset="0.4375"/><stop stop-opacity="1" stop-color="rgb(89.282227%, 80.891418%, 50.413513%)" offset="0.441406"/><stop stop-opacity="1" stop-color="rgb(89.523315%, 81.332397%, 51.087952%)" offset="0.445312"/><stop stop-opacity="1" stop-color="rgb(89.764404%, 81.771851%, 51.76239%)" offset="0.449219"/><stop stop-opacity="1" stop-color="rgb(90.005493%, 82.21283%, 52.436829%)" offset="0.453125"/><stop stop-opacity="1" stop-color="rgb(90.246582%, 82.653809%, 53.111267%)" offset="0.457031"/><stop stop-opacity="1" stop-color="rgb(90.487671%, 83.094788%, 53.785706%)" offset="0.460937"/><stop stop-opacity="1" stop-color="rgb(90.727234%, 83.534241%, 54.460144%)" offset="0.464844"/><stop stop-opacity="1" stop-color="rgb(90.968323%, 83.97522%, 55.134583%)" offset="0.46875"/><stop stop-opacity="1" stop-color="rgb(91.209412%, 84.414673%, 55.809021%)" offset="0.472656"/><stop stop-opacity="1" stop-color="rgb(91.4505%, 84.855652%, 56.483459%)" offset="0.476562"/><stop stop-opacity="1" stop-color="rgb(91.691589%, 85.296631%, 57.157898%)" offset="0.480469"/><stop stop-opacity="1" stop-color="rgb(91.932678%, 85.73761%, 57.832336%)" offset="0.484375"/><stop stop-opacity="1" stop-color="rgb(92.173767%, 86.177063%, 58.506775%)" offset="0.488281"/><stop stop-opacity="1" stop-color="rgb(92.414856%, 86.618042%, 59.181213%)" offset="0.492188"/><stop stop-opacity="1" stop-color="rgb(92.654419%, 87.057495%, 59.855652%)" offset="0.496094"/><stop stop-opacity="1" stop-color="rgb(92.895508%, 87.498474%, 60.53009%)" offset="0.5"/><stop stop-opacity="1" stop-color="rgb(93.136597%, 87.939453%, 61.204529%)" offset="0.503906"/><stop stop-opacity="1" stop-color="rgb(93.377686%, 88.380432%, 61.878967%)" offset="0.507812"/><stop stop-opacity="1" stop-color="rgb(93.618774%, 88.819885%, 62.553406%)" offset="0.511719"/><stop stop-opacity="1" stop-color="rgb(93.859863%, 89.260864%, 63.227844%)" offset="0.515625"/><stop stop-opacity="1" stop-color="rgb(94.099426%, 89.700317%, 63.902283%)" offset="0.519531"/><stop stop-opacity="1" stop-color="rgb(94.340515%, 90.141296%, 64.576721%)" offset="0.523437"/><stop stop-opacity="1" stop-color="rgb(94.581604%, 90.582275%, 65.25116%)" offset="0.527344"/><stop stop-opacity="1" stop-color="rgb(94.822693%, 91.023254%, 65.925598%)" offset="0.53125"/><stop stop-opacity="1" stop-color="rgb(95.063782%, 91.462708%, 66.600037%)" offset="0.535156"/><stop stop-opacity="1" stop-color="rgb(95.304871%, 91.903687%, 67.274475%)" offset="0.539062"/><stop stop-opacity="1" stop-color="rgb(95.545959%, 92.34314%, 67.948914%)" offset="0.542969"/><stop stop-opacity="1" stop-color="rgb(95.787048%, 92.784119%, 68.623352%)" offset="0.546875"/><stop stop-opacity="1" stop-color="rgb(96.026611%, 93.225098%, 69.297791%)" offset="0.550781"/><stop stop-opacity="1" stop-color="rgb(96.2677%, 93.666077%, 69.972229%)" offset="0.554688"/><stop stop-opacity="1" stop-color="rgb(96.508789%, 94.10553%, 70.646667%)" offset="0.558594"/><stop stop-opacity="1" stop-color="rgb(96.749878%, 94.546509%, 71.321106%)" offset="0.5625"/><stop stop-opacity="1" stop-color="rgb(96.990967%, 94.985962%, 71.995544%)" offset="0.566406"/><stop stop-opacity="1" stop-color="rgb(97.232056%, 95.426941%, 72.669983%)" offset="0.570312"/><stop stop-opacity="1" stop-color="rgb(97.251892%, 95.52002%, 72.898865%)" offset="0.574219"/><stop stop-opacity="1" stop-color="rgb(97.271729%, 95.613098%, 73.129272%)" offset="0.578125"/><stop stop-opacity="1" stop-color="rgb(96.580505%, 94.589233%, 71.928406%)" offset="0.582031"/><stop stop-opacity="1" stop-color="rgb(95.890808%, 93.565369%, 70.729065%)" offset="0.585938"/><stop stop-opacity="1" stop-color="rgb(95.201111%, 92.541504%, 69.528198%)" offset="0.589844"/><stop stop-opacity="1" stop-color="rgb(94.511414%, 91.517639%, 68.328857%)" offset="0.59375"/><stop stop-opacity="1" stop-color="rgb(93.82019%, 90.493774%, 67.127991%)" offset="0.597656"/><stop stop-opacity="1" stop-color="rgb(93.130493%, 89.46991%, 65.92865%)" offset="0.601562"/><stop stop-opacity="1" stop-color="rgb(92.43927%, 88.446045%, 64.727783%)" offset="0.605469"/><stop stop-opacity="1" stop-color="rgb(91.749573%, 87.42218%, 63.526917%)" offset="0.609375"/><stop stop-opacity="1" stop-color="rgb(91.05835%, 86.398315%, 62.32605%)" offset="0.613281"/><stop stop-opacity="1" stop-color="rgb(90.368652%, 85.374451%, 61.126709%)" offset="0.617188"/><stop stop-opacity="1" stop-color="rgb(89.678955%, 84.350586%, 59.925842%)" offset="0.621094"/><stop stop-opacity="1" stop-color="rgb(88.989258%, 83.326721%, 58.726501%)" offset="0.625"/><stop stop-opacity="1" stop-color="rgb(88.298035%, 82.302856%, 57.525635%)" offset="0.628906"/><stop stop-opacity="1" stop-color="rgb(87.608337%, 81.278992%, 56.324768%)" offset="0.632812"/><stop stop-opacity="1" stop-color="rgb(86.917114%, 80.255127%, 55.123901%)" offset="0.636719"/><stop stop-opacity="1" stop-color="rgb(86.227417%, 79.231262%, 53.924561%)" offset="0.640625"/><stop stop-opacity="1" stop-color="rgb(85.536194%, 78.207397%, 52.723694%)" offset="0.644531"/><stop stop-opacity="1" stop-color="rgb(84.846497%, 77.183533%, 51.524353%)" offset="0.648438"/><stop stop-opacity="1" stop-color="rgb(84.155273%, 76.159668%, 50.323486%)" offset="0.652344"/><stop stop-opacity="1" stop-color="rgb(83.465576%, 75.135803%, 49.124146%)" offset="0.65625"/><stop stop-opacity="1" stop-color="rgb(82.775879%, 74.111938%, 47.923279%)" offset="0.660156"/><stop stop-opacity="1" stop-color="rgb(82.086182%, 73.088074%, 46.722412%)" offset="0.664062"/><stop stop-opacity="1" stop-color="rgb(81.394958%, 72.064209%, 45.521545%)" offset="0.667969"/><stop stop-opacity="1" stop-color="rgb(80.705261%, 71.040344%, 44.322205%)" offset="0.671875"/><stop stop-opacity="1" stop-color="rgb(80.004883%, 70.002747%, 43.104553%)" offset="0.675781"/><stop stop-opacity="1" stop-color="rgb(79.30603%, 68.965149%, 41.888428%)" offset="0.679688"/><stop stop-opacity="1" stop-color="rgb(78.569031%, 67.874146%, 40.603638%)" offset="0.683594"/><stop stop-opacity="1" stop-color="rgb(77.833557%, 66.784668%, 39.318848%)" offset="0.6875"/><stop stop-opacity="1" stop-color="rgb(77.098083%, 65.693665%, 38.034058%)" offset="0.691406"/><stop stop-opacity="1" stop-color="rgb(76.36261%, 64.604187%, 36.749268%)" offset="0.695312"/><stop stop-opacity="1" stop-color="rgb(75.62561%, 63.513184%, 35.464478%)" offset="0.699219"/><stop stop-opacity="1" stop-color="rgb(74.890137%, 62.423706%, 34.179688%)" offset="0.703125"/><stop stop-opacity="1" stop-color="rgb(74.153137%, 61.332703%, 32.894897%)" offset="0.707031"/><stop stop-opacity="1" stop-color="rgb(73.417664%, 60.243225%, 31.610107%)" offset="0.710938"/><stop stop-opacity="1" stop-color="rgb(72.680664%, 59.152222%, 30.325317%)" offset="0.714844"/><stop stop-opacity="1" stop-color="rgb(71.94519%, 58.062744%, 29.040527%)" offset="0.71875"/><stop stop-opacity="1" stop-color="rgb(71.208191%, 56.971741%, 27.755737%)" offset="0.722656"/><stop stop-opacity="1" stop-color="rgb(70.472717%, 55.882263%, 26.472473%)" offset="0.726562"/><stop stop-opacity="1" stop-color="rgb(69.737244%, 54.79126%, 25.187683%)" offset="0.730469"/><stop stop-opacity="1" stop-color="rgb(69.00177%, 53.701782%, 23.902893%)" offset="0.734375"/><stop stop-opacity="1" stop-color="rgb(69.000244%, 53.700256%, 23.901367%)" offset="0.75"/><stop stop-opacity="1" stop-color="rgb(68.998718%, 53.69873%, 23.899841%)" offset="1"/></linearGradient></defs><g clip-path="url(#50e5ac1387)"><g clip-path="url(#bceb1272f4)"><path fill="url(#28c2a6fbac)" d="M 25.253906 0 L 25.253906 359.960938 L 383.582031 359.960938 L 383.582031 0 Z M 25.253906 0 " fill-rule="nonzero"/></g></g><g clip-path="url(#c1a31e0dfa)"><g clip-path="url(#76dfe631f7)"><path fill="url(#a60e3c7ada)" d="M 267.609375 14.671875 L 267.609375 14.734375 L 267.78125 14.734375 L 267.78125 14.671875 Z M 267.609375 14.671875 " fill-rule="nonzero"/></g></g></svg>