<svg xmlns="http://www.w3.org/2000/svg" xmlns:xlink="http://www.w3.org/1999/xlink" width="129" zoomAndPan="magnify" viewBox="0 0 96.75 96.75" height="129" preserveAspectRatio="xMidYMid meet" version="1.0"><defs><clipPath id="ead2392051"><path d="M 0 0 L 96.5 0 L 96.5 96.5 L 0 96.5 Z M 0 0 " clip-rule="nonzero"/></clipPath><clipPath id="b0c57a5439"><path d="M 0 0.84375 L 96.5 0.84375 L 96.5 95.847656 L 0 95.847656 Z M 0 0.84375 " clip-rule="nonzero"/></clipPath></defs><g clip-path="url(#ead2392051)"><path fill="#ffffff" d="M 0 0 L 96.5 0 L 96.5 96.5 L 0 96.5 Z M 0 0 " fill-opacity="1" fill-rule="nonzero"/><path fill="#151515" d="M 0 0 L 96.5 0 L 96.5 96.5 L 0 96.5 Z M 0 0 " fill-opacity="1" fill-rule="nonzero"/></g><g clip-path="url(#b0c57a5439)"><path fill="#ffffff" d="M 96.382812 49.152344 C 96.464844 49.839844 96.484375 50.546875 96.445312 51.230469 C 96.445312 53 96.421875 54.765625 96.382812 56.535156 C 96.359375 56.804688 96.296875 57.09375 96.214844 57.367188 C 95.902344 58.613281 95.570312 59.863281 95.214844 61.089844 C 95.007812 61.878906 94.757812 62.648438 94.46875 63.417969 C 94.074219 64.4375 93.800781 65.519531 93.675781 66.597656 C 93.492188 68.179688 93.09375 69.738281 92.160156 71.113281 C 91.847656 71.570312 91.617188 72.089844 91.472656 72.652344 C 91.222656 73.566406 90.746094 74.398438 90.082031 75.0625 C 88.207031 76.996094 86.128906 78.679688 83.863281 80.117188 C 82.886719 80.738281 81.84375 81.28125 80.785156 81.757812 C 79.226562 82.488281 77.539062 82.464844 75.875 82.550781 C 73.234375 82.652344 70.59375 82.714844 67.953125 82.796875 C 67.765625 82.796875 67.578125 82.820312 67.390625 82.859375 C 65.644531 83.503906 63.898438 84.109375 62.195312 84.816406 C 61.300781 85.191406 60.488281 85.730469 59.613281 86.1875 C 59.449219 86.25 59.28125 86.3125 59.09375 86.355469 L 59.65625 85.75 C 59.304688 85.8125 59.09375 85.835938 58.886719 85.875 C 57.953125 86.148438 57.015625 86.4375 56.078125 86.730469 C 56.808594 86.417969 57.535156 86.042969 58.285156 85.792969 C 59.324219 85.441406 60.40625 85.167969 61.445312 84.816406 C 62.007812 84.628906 62.503906 84.253906 63.066406 84.066406 C 64.960938 83.402344 66.808594 82.652344 68.765625 82.089844 C 70.492188 81.59375 72.195312 81.09375 73.984375 80.84375 C 74.773438 80.738281 75.503906 80.429688 76.148438 79.992188 C 77.769531 78.847656 79.578125 77.996094 81.511719 77.496094 C 82.242188 77.289062 82.949219 77.019531 83.632812 76.726562 C 83.863281 76.621094 84.050781 76.457031 84.238281 76.289062 C 84.695312 75.894531 85.109375 75.480469 85.566406 75.082031 C 86.753906 74.042969 88.0625 73.171875 89.0625 71.945312 C 89.476562 71.402344 89.851562 70.820312 90.183594 70.238281 C 90.972656 68.992188 91.847656 67.804688 91.953125 66.246094 C 91.972656 65.914062 92.160156 65.582031 92.261719 65.246094 C 92.367188 64.914062 92.472656 64.519531 92.554688 64.167969 C 92.949219 62.355469 93.242188 60.507812 94.300781 58.925781 C 94.40625 58.738281 94.507812 58.53125 94.570312 58.324219 C 94.96875 57.199219 95.339844 56.078125 95.738281 54.933594 C 96.296875 53.457031 96.296875 51.8125 95.738281 50.316406 C 95.550781 49.796875 95.382812 49.253906 95.214844 48.714844 L 96.109375 50.398438 C 96.171875 49.089844 95.945312 47.800781 95.464844 46.574219 C 95.507812 47.074219 95.550781 47.550781 95.570312 48.050781 L 95.339844 48.070312 C 95.320312 47.488281 95.257812 46.90625 95.257812 46.324219 C 95.277344 45.097656 95.464844 43.847656 94.550781 42.832031 C 94.507812 42.789062 94.507812 42.707031 94.488281 42.664062 C 93.761719 41.042969 93.054688 39.378906 92.261719 37.777344 C 91.183594 35.574219 90.039062 33.410156 88.9375 31.226562 C 88.769531 30.914062 88.605469 30.625 88.417969 30.332031 C 87.355469 28.441406 86.484375 26.445312 85.816406 24.363281 C 85.027344 21.910156 83.839844 19.664062 82.449219 17.523438 C 82.011719 16.835938 81.511719 16.171875 81.011719 15.527344 C 80.328125 14.632812 79.640625 13.738281 78.890625 12.863281 C 77.664062 11.429688 76.417969 10.035156 75.167969 8.621094 C 75.355469 8.703125 75.542969 8.828125 75.710938 8.953125 C 77.230469 10.453125 78.746094 11.949219 80.242188 13.488281 C 81.035156 14.300781 81.71875 15.191406 82.511719 16.023438 C 84.445312 18.042969 86.085938 20.226562 86.980469 22.929688 C 87.105469 23.28125 87.25 23.636719 87.4375 23.96875 C 88.394531 25.839844 89.351562 27.710938 90.328125 29.5625 C 90.328125 29.582031 90.414062 29.5625 90.496094 29.582031 C 90.371094 28.585938 90.246094 27.585938 90.101562 26.609375 C 90.246094 27.003906 90.453125 27.421875 90.496094 27.816406 C 90.578125 29.480469 91.097656 31.101562 92.015625 32.496094 C 93.261719 34.386719 94.238281 36.445312 94.945312 38.609375 C 95.257812 39.523438 95.363281 40.5 95.570312 41.457031 C 95.675781 42 95.777344 42.558594 95.882812 43.101562 L 95.402344 42.976562 C 95.488281 43.890625 95.550781 44.785156 95.675781 45.660156 C 95.945312 46.800781 96.214844 47.964844 96.382812 49.152344 Z M 33.265625 90.328125 C 33.246094 90.328125 33.246094 90.328125 33.226562 90.328125 C 33.246094 90.328125 33.246094 90.347656 33.265625 90.328125 Z M 17.566406 26.214844 C 17.585938 26.195312 17.585938 26.171875 17.609375 26.152344 C 17.585938 26.171875 17.566406 26.195312 17.566406 26.214844 L 17.503906 26.320312 C 17.523438 26.277344 17.546875 26.257812 17.566406 26.214844 Z M 88.726562 83.277344 C 88.914062 83.214844 89.082031 83.195312 89.269531 83.152344 C 88.605469 83.464844 87.957031 83.878906 87.25 84.089844 C 85.070312 84.691406 82.886719 85.210938 80.703125 85.792969 C 78.996094 86.25 77.332031 86.792969 75.628906 87.1875 C 74.546875 87.414062 73.464844 87.519531 72.363281 87.519531 C 69.722656 87.5625 67.082031 87.5 64.441406 87.5625 C 63.316406 87.582031 62.195312 87.789062 61.070312 87.933594 C 59.824219 88.101562 58.597656 88.289062 57.347656 88.453125 C 55.601562 88.683594 53.917969 89.246094 52.273438 89.867188 C 51.921875 89.992188 51.566406 90.078125 51.214844 90.179688 C 50.984375 90.347656 50.734375 90.492188 50.484375 90.617188 C 48.800781 91.34375 47.117188 92.050781 45.433594 92.757812 C 45.285156 92.800781 45.140625 92.820312 44.996094 92.820312 C 44.789062 92.96875 44.558594 93.09375 44.308594 93.21875 C 43.019531 93.632812 41.730469 94.027344 40.441406 94.402344 C 39.152344 94.777344 37.863281 95.191406 36.554688 95.503906 C 36.03125 95.628906 35.511719 95.648438 34.992188 95.566406 C 32.871094 95.234375 30.8125 94.632812 28.835938 93.800781 C 28.027344 93.445312 27.175781 93.257812 26.320312 93.007812 C 24.96875 92.613281 23.660156 92.03125 22.433594 91.324219 C 21.890625 91.011719 21.371094 90.636719 20.8125 90.347656 C 17.296875 88.578125 14.925781 85.667969 12.886719 82.425781 C 10.871094 79.222656 9.125 75.875 7.6875 72.359375 C 7.648438 72.214844 7.585938 72.066406 7.480469 71.945312 C 6.234375 70.632812 5.878906 68.90625 5.339844 67.265625 C 3.925781 62.9375 2.550781 58.59375 1.136719 54.246094 C 0.992188 53.789062 0.828125 53.351562 0.617188 52.9375 C 0.015625 51.730469 0.0351562 50.523438 0.367188 49.253906 C 0.929688 47.09375 1.867188 45.035156 3.09375 43.164062 C 4.445312 41.105469 5.796875 39.066406 7.191406 37.027344 C 7.417969 36.757812 7.667969 36.488281 7.9375 36.257812 C 8.148438 35.925781 8.394531 35.613281 8.667969 35.324219 C 9.746094 34.386719 10.871094 33.492188 11.722656 32.347656 C 11.828125 32.246094 11.953125 32.140625 12.078125 32.058594 L 12.472656 31.890625 C 12.535156 31.890625 12.617188 31.890625 12.660156 31.871094 C 14.15625 30.644531 15.714844 29.5 16.570312 27.671875 C 16.796875 27.171875 17.214844 26.753906 17.566406 26.296875 L 16.695312 27.980469 L 16.796875 28.042969 L 18.167969 27.109375 C 18.230469 27.003906 18.292969 26.902344 18.378906 26.816406 C 19.769531 25.589844 20.726562 24.011719 21.808594 22.535156 C 21.976562 22.261719 22.101562 21.972656 22.226562 21.679688 L 21.226562 22.035156 C 21.332031 21.910156 21.433594 21.765625 21.558594 21.703125 C 22.746094 21.222656 22.996094 20.101562 23.535156 19.039062 L 22.785156 19.371094 C 23.097656 19.019531 23.410156 18.664062 23.765625 18.355469 C 26.21875 16.441406 28.714844 14.546875 31.1875 12.65625 C 31.269531 12.613281 31.355469 12.59375 31.457031 12.574219 C 31.1875 12.863281 30.917969 13.15625 30.625 13.40625 C 30.253906 13.738281 29.835938 14.027344 29.441406 14.339844 L 29.566406 14.546875 C 30.398438 14.152344 31.25 13.777344 32.082031 13.34375 C 33.789062 12.46875 35.472656 11.574219 37.15625 10.660156 C 39.257812 9.535156 41.355469 8.414062 43.1875 6.855469 C 43.894531 6.25 44.726562 5.773438 45.515625 5.273438 C 46.078125 4.921875 46.699219 4.609375 47.285156 4.296875 C 47.179688 4.277344 47.074219 4.277344 46.949219 4.296875 C 45.246094 4.921875 43.582031 5.542969 41.898438 6.148438 C 42.125 5.960938 42.335938 5.710938 42.605469 5.605469 C 43.414062 5.273438 44.246094 4.984375 45.078125 4.691406 C 45.558594 4.546875 46.035156 4.398438 46.492188 4.214844 C 48.613281 3.195312 50.859375 2.675781 53.148438 2.21875 C 54.4375 1.96875 55.664062 1.46875 56.933594 1.113281 C 57.308594 0.988281 57.722656 0.90625 58.117188 0.886719 C 59.59375 0.84375 61.070312 0.863281 62.546875 0.863281 C 63.421875 0.863281 64.292969 1.03125 65.125 1.300781 C 65.914062 1.550781 66.769531 1.65625 67.601562 1.84375 C 67.828125 1.882812 68.058594 1.925781 68.285156 1.988281 C 68.308594 1.988281 68.328125 1.988281 68.328125 1.988281 C 70.15625 2.550781 71.882812 3.382812 73.445312 4.484375 C 74.816406 5.441406 76.105469 6.5 77.3125 7.664062 C 77.625 7.957031 77.9375 8.246094 78.246094 8.558594 C 78.414062 8.726562 78.582031 8.871094 78.765625 9.015625 L 78.808594 9.039062 C 78.871094 9.078125 78.914062 9.121094 78.976562 9.164062 C 79.515625 9.496094 80.097656 9.746094 80.640625 10.078125 C 80.867188 10.203125 81.097656 10.347656 81.285156 10.535156 C 81.511719 10.785156 81.742188 11.054688 81.929688 11.347656 C 82.179688 11.636719 82.425781 11.96875 82.636719 12.28125 C 82.824219 12.59375 82.988281 12.925781 83.132812 13.257812 L 83.363281 13.59375 C 83.320312 13.59375 83.300781 13.570312 83.28125 13.550781 C 83.488281 13.945312 83.695312 14.339844 83.902344 14.734375 C 83.945312 14.777344 83.988281 14.820312 84.007812 14.859375 C 84.050781 14.964844 84.089844 15.070312 84.132812 15.152344 C 84.734375 16.234375 85.339844 17.292969 85.835938 18.417969 C 85.921875 18.605469 85.652344 18.75 85.566406 18.582031 C 85.527344 18.5 85.484375 18.394531 85.441406 18.3125 C 85.378906 18.292969 85.296875 18.292969 85.277344 18.269531 C 84.820312 17.398438 84.320312 16.566406 84.027344 15.628906 C 83.570312 14.796875 83.113281 13.964844 82.71875 13.09375 C 82.386719 12.324219 81.824219 11.742188 81.347656 11.074219 C 81.136719 10.804688 80.886719 10.597656 80.597656 10.410156 C 80.578125 10.410156 80.554688 10.390625 80.554688 10.390625 C 80.367188 10.265625 80.160156 10.160156 79.953125 10.058594 C 79.472656 9.808594 78.914062 9.578125 78.496094 9.203125 C 78.289062 9.015625 78.082031 8.828125 77.875 8.644531 C 77.726562 8.539062 77.601562 8.414062 77.476562 8.269531 L 77.539062 8.308594 C 77.476562 8.246094 77.4375 8.207031 77.375 8.144531 C 77.375 8.164062 77.394531 8.183594 77.394531 8.207031 L 75.128906 6.210938 L 73.546875 5.230469 C 73.859375 5.292969 74.152344 5.398438 74.402344 5.566406 C 73.632812 4.960938 72.820312 4.421875 71.988281 3.921875 C 72.113281 4.027344 72.21875 4.152344 72.277344 4.296875 L 73.152344 4.878906 C 72.777344 4.898438 72.425781 4.671875 72.277344 4.316406 L 71.46875 3.734375 C 71.570312 3.734375 71.695312 3.753906 71.800781 3.816406 C 71.324219 3.546875 70.824219 3.277344 70.304688 3.046875 C 70.34375 3.109375 70.386719 3.195312 70.40625 3.296875 L 69.722656 2.800781 C 69.265625 2.613281 68.785156 2.445312 68.285156 2.300781 C 68.246094 2.277344 68.222656 2.257812 68.203125 2.238281 C 67.453125 2.050781 66.683594 1.90625 65.914062 1.84375 C 65.75 1.820312 65.605469 1.78125 65.457031 1.71875 C 64.191406 1.113281 62.839844 1.09375 61.488281 1.09375 C 60.863281 1.09375 60.21875 1.136719 59.59375 1.074219 C 57.953125 0.90625 56.515625 1.488281 55.101562 2.257812 C 55.601562 2.175781 56.121094 2.132812 56.621094 2.113281 C 57.492188 2.132812 58.367188 2.238281 59.242188 2.257812 C 60.570312 2.277344 61.882812 2.257812 63.210938 2.257812 C 65.0625 2.257812 66.808594 2.738281 68.515625 3.402344 C 68.785156 3.507812 68.992188 3.734375 69.222656 3.921875 C 69.824219 4.109375 70.324219 4.566406 70.554688 5.167969 L 69.222656 3.941406 C 68.328125 3.609375 67.433594 3.234375 66.519531 2.964844 C 64.875 2.507812 63.171875 2.339844 61.464844 2.445312 C 61.671875 2.613281 61.777344 2.714844 61.882812 2.738281 C 62.734375 2.984375 63.566406 3.257812 64.417969 3.421875 C 65.75 3.652344 67.039062 4.046875 68.285156 4.566406 C 68.910156 4.835938 69.554688 5.085938 70.199219 5.335938 C 70.34375 5.398438 70.574219 5.542969 70.574219 5.191406 C 70.59375 5.191406 70.636719 5.210938 70.65625 5.230469 C 71.84375 6.042969 73.027344 6.875 74.191406 7.6875 C 74.253906 7.726562 74.296875 7.832031 74.339844 7.914062 C 74.277344 7.996094 74.128906 8.144531 74.152344 8.164062 C 74.296875 8.351562 74.460938 8.539062 74.628906 8.703125 C 74.253906 8.476562 73.921875 8.226562 73.589844 7.957031 C 72.714844 7.125 71.820312 6.335938 70.699219 5.875 C 69.449219 5.355469 68.203125 4.859375 66.933594 4.398438 C 66.351562 4.191406 65.75 4.027344 65.148438 3.902344 C 64.625 3.777344 64.105469 3.714844 63.585938 3.570312 C 62.921875 3.382812 62.296875 3.089844 61.632812 2.882812 C 60.59375 2.570312 59.550781 2.382812 58.492188 2.675781 C 57.367188 3.007812 56.289062 3.402344 55.1875 3.753906 C 55.394531 3.546875 55.644531 3.382812 55.914062 3.234375 C 56.371094 3.046875 56.871094 2.945312 57.347656 2.777344 C 57.492188 2.714844 57.617188 2.632812 57.742188 2.527344 C 56.933594 2.382812 56.078125 2.382812 55.269531 2.527344 C 53.125 3.007812 51.003906 3.570312 48.882812 4.128906 C 46.867188 4.671875 45.015625 5.667969 43.414062 7.019531 C 41.523438 8.621094 39.402344 9.808594 37.21875 10.949219 C 35.929688 11.617188 34.640625 12.28125 33.371094 12.945312 C 32.457031 13.425781 31.582031 14.070312 30.605469 14.363281 C 28.046875 15.171875 26.09375 16.792969 24.285156 18.664062 C 23.703125 19.289062 23.265625 20.058594 22.996094 20.871094 L 23.390625 20.828125 L 24.054688 20.453125 C 26.488281 19.101562 28.941406 17.730469 31.355469 16.359375 C 32.375 15.777344 33.414062 15.214844 34.453125 14.652344 C 36.199219 13.714844 37.925781 12.78125 39.671875 11.84375 C 42 10.597656 44.308594 9.351562 46.660156 8.144531 C 47.617188 7.644531 48.574219 7.167969 49.550781 6.6875 C 49.757812 6.582031 49.964844 6.480469 50.152344 6.398438 C 50.652344 6.0625 51.152344 5.753906 51.671875 5.441406 C 51.960938 5.292969 52.296875 5.167969 52.605469 5.066406 C 52.523438 5.230469 52.480469 5.460938 52.355469 5.566406 C 52.210938 5.667969 51.835938 5.605469 51.753906 5.753906 C 51.691406 5.855469 51.609375 5.9375 51.527344 6.023438 C 51.527344 6.085938 51.503906 6.148438 51.421875 6.1875 L 51.253906 6.25 C 50.652344 6.6875 49.882812 6.8125 49.28125 7.230469 C 48.425781 7.8125 47.449219 8.226562 46.535156 8.683594 C 45.597656 9.140625 44.726562 9.558594 43.832031 10.015625 C 43.269531 10.304688 42.707031 10.597656 42.148438 10.910156 C 41.085938 11.472656 40.046875 12.03125 38.984375 12.59375 C 37.425781 13.445312 35.867188 14.300781 34.285156 15.128906 C 33.933594 15.316406 33.578125 15.527344 33.226562 15.714844 C 33.390625 15.628906 33.539062 15.566406 33.703125 15.484375 C 33.328125 15.734375 32.976562 16.023438 32.582031 16.253906 C 32.019531 16.566406 31.417969 16.835938 30.835938 17.128906 C 30.835938 17.105469 30.855469 17.085938 30.855469 17.066406 C 30.023438 17.542969 29.191406 18 28.359375 18.457031 C 28.359375 18.480469 28.339844 18.480469 28.339844 18.5 C 28.109375 18.625 27.859375 18.75 27.632812 18.875 C 26.007812 19.789062 24.386719 20.683594 22.765625 21.578125 C 22.746094 21.597656 22.722656 21.597656 22.683594 21.597656 C 22.660156 21.617188 22.640625 21.640625 22.621094 21.679688 C 21.664062 23.03125 20.789062 24.425781 19.792969 25.757812 C 19.355469 26.339844 18.730469 26.777344 18.167969 27.273438 C 17.671875 27.734375 17.191406 28.230469 16.652344 28.667969 C 16.027344 29.167969 15.695312 29.8125 15.402344 30.519531 C 14.800781 31.933594 14.21875 33.367188 13.554688 34.742188 C 13.261719 35.300781 12.972656 35.820312 13.011719 36.488281 C 13.035156 36.945312 12.722656 37.171875 12.367188 37.027344 C 12.054688 36.925781 12.140625 36.738281 12.367188 36.570312 C 11.890625 36.488281 11.472656 36.40625 11.160156 36.964844 C 10.433594 38.296875 9.644531 39.585938 8.875 40.875 C 7.855469 42.621094 6.878906 44.367188 6.378906 46.367188 C 6.148438 47.300781 5.878906 48.238281 5.628906 49.195312 C 5.089844 51.316406 4.902344 53.457031 5.566406 55.621094 C 5.734375 56.179688 5.777344 56.785156 5.878906 57.367188 C 6.046875 58.324219 6.128906 59.300781 6.421875 60.234375 C 7.148438 62.628906 7.980469 64.996094 8.769531 67.390625 C 8.148438 66.953125 8.105469 66.226562 7.898438 65.582031 C 7.667969 64.875 7.441406 64.144531 7.230469 63.4375 C 6.609375 61.398438 5.691406 59.445312 5.652344 57.261719 C 5.628906 56.785156 5.714844 56.160156 5.152344 55.640625 C 5.089844 57.679688 5.027344 59.589844 4.964844 61.503906 C 4.945312 62.003906 4.882812 62.503906 4.839844 63 C 4.777344 63.855469 4.652344 64.707031 5.007812 65.519531 C 5.878906 67.515625 6.753906 69.488281 7.648438 71.464844 C 7.710938 71.570312 7.773438 71.695312 7.835938 71.796875 C 8.332031 72.671875 8.914062 73.503906 9.332031 74.417969 C 10.019531 75.894531 11.058594 77.121094 12.078125 78.347656 C 13.40625 79.949219 14.78125 81.488281 16.132812 83.070312 C 16.589844 83.589844 16.984375 84.148438 17.421875 84.691406 C 17.960938 85.355469 18.460938 86.042969 19.0625 86.625 C 19.730469 87.269531 20.457031 87.832031 21.519531 87.871094 C 22.265625 87.933594 23.015625 88.121094 23.703125 88.433594 C 25.53125 89.183594 27.507812 89.558594 29.484375 89.558594 C 30.8125 89.558594 32.125 89.867188 33.308594 90.453125 C 33.082031 90.429688 32.808594 90.472656 32.601562 90.390625 C 31.105469 89.746094 29.503906 89.910156 27.964844 89.722656 C 26.65625 89.558594 25.34375 89.390625 24.136719 88.851562 C 23.160156 88.394531 22.121094 88.121094 21.039062 88.039062 C 21.183594 88.226562 21.351562 88.414062 21.539062 88.601562 C 22.785156 89.597656 23.972656 90.699219 25.324219 91.554688 C 27.214844 92.78125 29.191406 93.902344 31.5 94.234375 C 33.140625 94.464844 34.785156 94.757812 36.429688 94.964844 C 36.90625 95.027344 37.363281 95.003906 37.84375 94.902344 C 40.066406 94.339844 42.335938 93.945312 44.457031 93.050781 C 44.664062 92.988281 44.871094 92.945312 45.078125 92.90625 C 45.660156 92.59375 46.222656 92.238281 46.824219 91.96875 C 48.199219 91.386719 49.589844 90.847656 50.964844 90.285156 C 51.066406 90.265625 51.191406 90.242188 51.316406 90.242188 C 51.359375 90.179688 51.402344 90.097656 51.464844 90.078125 C 53.730469 89.121094 56.058594 88.414062 58.535156 88.183594 C 60.03125 88.039062 61.507812 87.746094 63.003906 87.539062 C 63.335938 87.5 63.691406 87.457031 64.042969 87.457031 C 67.121094 87.4375 70.21875 87.414062 73.296875 87.394531 C 74.816406 87.375 76.273438 86.957031 77.726562 86.582031 C 80.058594 85.960938 82.40625 85.378906 84.734375 84.734375 C 86.003906 84.210938 87.355469 83.714844 88.726562 83.277344 Z M 75.066406 6.167969 C 75.230469 6.292969 75.398438 6.398438 75.566406 6.523438 C 75.335938 6.3125 75.085938 6.125 74.859375 5.9375 C 74.941406 6 75.003906 6.085938 75.066406 6.167969 Z M 48.011719 3.796875 C 47.761719 3.921875 47.53125 4.089844 47.324219 4.253906 C 48.300781 3.984375 49.257812 3.714844 50.234375 3.445312 C 51.089844 3.195312 51.960938 2.945312 52.816406 2.675781 C 51.152344 2.777344 49.527344 3.152344 48.011719 3.796875 Z M 4.589844 63.542969 C 4.632812 61.984375 4.671875 60.402344 4.714844 58.84375 C 4.734375 58.34375 4.734375 57.84375 4.734375 57.324219 C 4.757812 56.097656 4.964844 54.851562 4.796875 53.664062 C 4.339844 50.335938 4.882812 47.132812 5.652344 43.953125 C 6.171875 41.832031 7.148438 39.816406 8.1875 37.878906 C 8.75 36.839844 9.3125 35.820312 9.894531 34.804688 C 9.539062 34.949219 9.226562 35.15625 8.9375 35.40625 C 8.582031 35.699219 8.25 35.988281 7.898438 36.257812 C 7.898438 36.34375 7.898438 36.464844 7.855469 36.507812 C 6.109375 38.648438 4.671875 41.042969 3.21875 43.371094 C 1.949219 45.324219 1.035156 47.488281 0.492188 49.753906 C 0.285156 50.691406 0.285156 51.625 0.703125 52.519531 C 0.929688 53 1.136719 53.5 1.304688 54.019531 C 2.261719 56.972656 3.175781 59.945312 4.132812 62.917969 C 4.195312 63.148438 4.300781 63.375 4.382812 63.582031 Z M 36.367188 95.277344 C 36.34375 95.214844 36.34375 95.152344 36.34375 95.089844 L 32.207031 94.507812 C 33.578125 94.921875 34.929688 95.421875 36.367188 95.277344 Z M 32.851562 11.449219 C 34.328125 10.203125 36.09375 9.433594 37.78125 8.558594 C 38.714844 8.082031 39.609375 7.476562 40.503906 6.917969 C 40.378906 6.917969 40.253906 6.9375 40.152344 6.957031 C 38.175781 8.019531 36.179688 9.058594 34.222656 10.179688 C 33.640625 10.515625 33.183594 11.035156 32.683594 11.472656 C 32.726562 11.472656 32.808594 11.492188 32.851562 11.449219 Z M 21.144531 22.054688 C 21.144531 22.035156 21.144531 22.035156 21.144531 22.054688 L 21.121094 22.054688 L 21.144531 22.054688 C 21.101562 22.078125 21.101562 22.097656 21.082031 22.097656 C 21.101562 22.078125 21.121094 22.078125 21.144531 22.054688 Z M 18.960938 24.074219 C 19.210938 23.429688 19.585938 22.949219 20.25 22.679688 C 20.5625 22.554688 20.8125 22.304688 21.082031 22.097656 C 20.832031 22.199219 20.582031 22.304688 20.332031 22.410156 C 20.105469 22.511719 19.894531 22.660156 19.644531 22.429688 C 19.148438 22.910156 18.628906 23.367188 18.148438 23.863281 C 18.066406 23.988281 17.984375 24.113281 17.941406 24.238281 L 18.753906 23.71875 C 18.585938 24.28125 18.335938 24.820312 18.023438 25.339844 C 17.878906 25.613281 17.734375 25.882812 17.609375 26.152344 C 18.273438 25.613281 18.667969 24.84375 18.960938 24.074219 Z M 20.832031 21.035156 L 22.578125 19.457031 C 21.871094 19.832031 21.269531 20.371094 20.832031 21.035156 Z M 22.660156 19.394531 L 22.578125 19.457031 C 22.621094 19.433594 22.640625 19.433594 22.660156 19.394531 C 22.703125 19.394531 22.703125 19.394531 22.722656 19.371094 Z M 19.644531 22.429688 C 20 21.992188 20.375 21.578125 20.726562 21.140625 C 20.207031 21.410156 19.832031 21.867188 19.644531 22.429688 Z M 19.644531 22.429688 Z M 20.726562 21.140625 C 20.75 21.140625 20.769531 21.121094 20.789062 21.097656 C 20.8125 21.078125 20.832031 21.058594 20.832031 21.015625 L 20.769531 21.078125 C 20.75 21.121094 20.75 21.121094 20.726562 21.140625 Z M 12.410156 31.890625 L 13.035156 30.933594 C 13.867188 30.3125 14.53125 29.519531 14.78125 28.542969 C 14.96875 27.878906 15.195312 27.210938 15.488281 26.589844 L 17.859375 24.324219 C 16.796875 24.800781 16.046875 25.589844 15.488281 26.589844 C 14.96875 26.839844 14.78125 27.335938 14.71875 27.859375 C 14.59375 28.648438 14.21875 29.394531 13.679688 30 C 13.429688 30.289062 13.21875 30.644531 13.011719 30.976562 C 13.011719 30.976562 13.011719 30.976562 13.035156 30.976562 C 12.699219 31.351562 12.367188 31.726562 12.035156 32.101562 Z M 33.996094 90.699219 C 33.765625 90.597656 33.558594 90.492188 33.351562 90.367188 C 34.160156 90.597656 34.992188 90.804688 35.804688 91.011719 C 36.28125 91.136719 36.78125 91.304688 37.261719 91.304688 C 39.171875 91.28125 41.085938 91.199219 43 91.097656 C 43.332031 91.054688 43.644531 90.972656 43.957031 90.867188 C 43.957031 90.804688 43.933594 90.742188 43.933594 90.679688 C 42.707031 90.679688 41.503906 90.636719 40.296875 90.679688 C 38.757812 90.742188 37.21875 90.574219 35.722656 90.222656 C 34.597656 89.972656 33.433594 89.867188 32.332031 89.453125 C 31.332031 89.101562 30.273438 88.976562 29.234375 88.726562 L 25.675781 87.644531 L 27.652344 87.996094 C 27.609375 87.894531 27.546875 87.808594 27.464844 87.726562 C 24.179688 84.796875 20.3125 82.695312 16.734375 80.199219 L 16.214844 79.929688 C 14.96875 79.242188 14.238281 78.058594 13.386719 77.019531 C 14.074219 77.558594 14.78125 78.078125 15.425781 78.640625 C 16.984375 80.054688 18.691406 81.300781 20.519531 82.382812 C 22.496094 83.566406 24.429688 84.796875 26.15625 86.355469 C 26.738281 86.875 27.421875 87.289062 28.046875 87.769531 C 28.609375 88.226562 29.296875 88.496094 30.023438 88.601562 C 30.960938 88.726562 31.894531 88.789062 32.832031 88.851562 C 33.890625 88.914062 34.972656 88.953125 36.03125 88.976562 C 37.632812 88.996094 39.277344 89.183594 40.835938 88.933594 C 43.042969 88.578125 45.265625 88.414062 47.492188 88.414062 C 50.277344 88.414062 52.960938 87.789062 55.601562 86.855469 C 55.789062 86.8125 55.953125 86.769531 56.140625 86.730469 C 55.996094 86.875 55.832031 87 55.644531 87.082031 C 54.789062 87.351562 53.917969 87.601562 53.042969 87.871094 C 52.753906 87.957031 52.480469 88.039062 52.191406 88.121094 C 53.148438 88.269531 55 87.808594 56.058594 87.289062 C 57.035156 86.769531 58.097656 86.457031 59.179688 86.355469 C 58.636719 86.5625 58.074219 86.75 57.535156 86.957031 C 57.035156 87.144531 56.558594 87.375 56.058594 87.539062 C 55.144531 87.851562 54.207031 88.101562 53.273438 88.394531 C 52.585938 88.621094 51.921875 88.890625 51.253906 89.140625 C 50.714844 89.328125 50.214844 89.597656 49.652344 89.703125 C 47.65625 90.097656 45.660156 90.492188 43.726562 91.179688 C 43.457031 91.261719 43.1875 91.304688 42.894531 91.304688 C 41.148438 91.40625 39.382812 91.511719 37.613281 91.574219 C 37.113281 91.574219 36.617188 91.511719 36.136719 91.367188 C 35.429688 91.199219 34.703125 90.949219 33.996094 90.699219 Z M 51.253906 88.578125 L 49.550781 89.371094 L 49.613281 89.535156 L 51.378906 88.871094 Z M 45.910156 89.972656 C 46.929688 89.660156 47.949219 89.390625 49.007812 89.203125 C 49.46875 89.121094 49.902344 88.851562 50.546875 88.601562 C 50.402344 88.539062 50.234375 88.496094 50.070312 88.476562 C 48.761719 88.539062 47.429688 88.601562 46.117188 88.664062 C 45.246094 88.703125 44.371094 88.726562 43.5 88.808594 C 42.1875 88.914062 40.878906 89.140625 39.566406 89.183594 C 37.238281 89.246094 34.929688 89.203125 32.394531 89.203125 C 33.101562 89.433594 33.621094 89.621094 34.160156 89.746094 C 34.929688 89.910156 35.699219 90.035156 36.46875 90.160156 C 37.46875 90.328125 38.464844 90.429688 39.464844 90.492188 C 40.648438 90.515625 41.855469 90.492188 43.042969 90.390625 C 43.996094 90.304688 44.996094 90.265625 45.910156 89.972656 Z M 33.265625 90.328125 C 33.289062 90.347656 33.308594 90.347656 33.328125 90.367188 C 33.308594 90.347656 33.289062 90.347656 33.265625 90.328125 Z M 11.328125 75.019531 C 10.976562 74.085938 10.621094 73.148438 10.246094 72.191406 C 10.246094 72.171875 10.207031 72.171875 10.183594 72.152344 C 10.101562 71.632812 10.101562 71.089844 9.933594 70.613281 C 9.539062 69.46875 9.082031 68.347656 8.644531 67.222656 C 8.667969 67.410156 8.707031 67.597656 8.75 67.765625 C 9.164062 69.011719 9.769531 70.195312 9.851562 71.546875 C 9.871094 71.757812 10.039062 71.945312 10.164062 72.152344 C 10.246094 73.210938 10.433594 74.25 11.308594 75 C 11.433594 75.519531 11.804688 75.789062 12.285156 75.957031 L 13.40625 76.996094 C 13.199219 76.433594 12.761719 76.144531 12.242188 75.9375 Z M 22.722656 21.492188 Z M 22.722656 21.492188 " fill-opacity="1" fill-rule="nonzero"/></g></svg>