<svg xmlns="http://www.w3.org/2000/svg" xmlns:xlink="http://www.w3.org/1999/xlink" width="544" zoomAndPan="magnify" viewBox="0 0 408 359.999987" height="480" preserveAspectRatio="xMidYMid meet" version="1.0"><path fill="#d99e32" d="M 23.039062 360 L 21.886719 360 L 0 338.113281 L 0 336.960938 Z M 0 306.289062 L 0 307.441406 L 52.558594 360 L 53.710938 360 Z M 0 275.617188 L 0 276.769531 L 83.230469 360 L 84.382812 360 Z M 0 244.945312 L 0 246.097656 L 113.902344 360 L 115.054688 360 Z M 0 214.273438 L 0 215.425781 L 144.574219 360 L 145.726562 360 Z M 0 183.601562 L 0 184.753906 L 175.246094 360 L 176.398438 360 Z M 0 152.929688 L 0 154.078125 L 205.921875 360 L 207.070312 360 Z M 0 122.257812 L 0 123.40625 L 236.59375 360 L 237.742188 360 Z M 0 91.585938 L 0 92.734375 L 267.265625 360 L 268.414062 360 Z M 0 60.910156 L 0 62.0625 L 297.9375 360 L 299.089844 360 Z M 0 30.238281 L 0 31.390625 L 328.609375 360 L 329.761719 360 Z M 0.433594 0 L 0 0 L 0 0.71875 L 359.28125 360 L 360 360 L 360 359.566406 Z M 0.433594 0 " fill-opacity="1" fill-rule="nonzero"/></svg>